<svg width="36" height="36" viewBox="0 0 36 36" fill="none" xmlns="http://www.w3.org/2000/svg">
<mask id="mask0_46_94" style="mask-type:luminance" maskUnits="userSpaceOnUse" x="0" y="3" width="29" height="30">
<path d="M0.581251 3.59998H28.8V32.4H0.581251V3.59998Z" fill="white"/>
</mask>
<g mask="url(#mask0_46_94)">
<path d="M26.9859 24.7547L21.3984 21.825C20.6063 21.4125 19.6406 21.6281 19.0969 22.3406L17.0438 25.0078C15.0469 23.9109 13.5281 22.875 11.7703 21.089C9.89063 19.1812 8.89688 17.6156 7.86094 15.6422L10.4672 13.5797C11.1656 13.0265 11.3766 12.0422 10.9688 11.2453L8.09531 5.60623C7.59375 4.61248 6.35156 4.28436 5.43281 4.9078L1.875 7.31248C1.04531 7.8703 0.581251 8.83592 0.646875 9.83905C0.717188 10.8656 0.839064 12.164 1.07344 13.064C2.10938 17.1094 4.60313 21.2812 8.09063 24.8203C11.5734 28.3547 15.6844 30.8859 19.6781 31.9359C20.5688 32.175 21.8531 32.3015 22.8703 32.3672C23.8734 32.4328 24.8297 31.9453 25.3781 31.0875L27.6938 27.4359C28.2797 26.5078 27.9563 25.2656 26.9859 24.7547Z" fill="white"/>
</g>
<mask id="mask1_46_94" style="mask-type:luminance" maskUnits="userSpaceOnUse" x="14" y="2" width="22" height="9">
<path d="M14.4 2.8219H35.4187V10.8H14.4V2.8219Z" fill="white"/>
</mask>
<g mask="url(#mask1_46_94)">
<path d="M33.975 2.8266H16.2938C15.4969 2.8266 14.85 3.48285 14.85 4.29379V5.2641L25.1344 9.63754L35.4188 5.2641V4.29379C35.4188 3.48285 34.7719 2.8266 33.975 2.8266Z" fill="white"/>
</g>
<mask id="mask2_46_94" style="mask-type:luminance" maskUnits="userSpaceOnUse" x="14" y="7" width="22" height="11">
<path d="M14.4 7.20001H35.4187V18H14.4V7.20001Z" fill="white"/>
</mask>
<g mask="url(#mask2_46_94)">
<path d="M25.1297 12.0609C24.8156 12.0609 24.5062 11.9953 24.2109 11.8687L14.85 7.89374V16.4859C14.85 17.2969 15.4969 17.9531 16.2938 17.9531H33.9703C34.7672 17.9531 35.4141 17.2969 35.4141 16.4859V7.89374L26.0531 11.8687C25.7625 11.9953 25.4484 12.0609 25.1297 12.0609Z" fill="white"/>
</g>
</svg>
