<svg width="36" height="36" viewBox="0 0 36 36" fill="none" xmlns="http://www.w3.org/2000/svg">
<g clip-path="url(#clip0_46_39)">
<path d="M28.2516 17.7094L28.2234 17.6719C28.0031 17.3765 27.6891 17.4281 27.6 17.4515C27.5109 17.475 27.2109 17.5781 27.1594 17.9484L26.8312 20.2734C26.8266 20.3062 26.8078 20.3344 26.7984 20.3625C27.4031 19.5562 27.8906 18.6656 28.2516 17.7094Z" fill="white"/>
<path d="M26.2406 20.7891C26.2125 20.7891 26.1844 20.7844 26.1563 20.7797L22.6313 20.2734C22.3031 20.2266 22.0781 19.9219 22.125 19.5938L22.4531 17.2688C22.5094 16.8984 22.2516 16.7156 22.1719 16.6688C22.0875 16.6219 21.8063 16.4813 21.5109 16.7063L19.6453 18.1172C19.3828 18.3141 19.0078 18.2578 18.8109 17.9953L16.6734 15.1219C16.4766 14.8594 16.5281 14.4844 16.7906 14.2828L18.6609 12.8719C18.9563 12.6516 18.9 12.3375 18.8766 12.2438C18.8578 12.1547 18.75 11.8547 18.3891 11.8031L16.0781 11.4703C15.9187 11.4469 15.7781 11.3625 15.6844 11.2359C15.5906 11.1094 15.5484 10.95 15.5719 10.7906L16.0781 7.2375C16.125 6.90938 16.425 6.68438 16.7484 6.72657L19.0594 7.05938C19.4203 7.11094 19.6078 6.85313 19.6547 6.77344C19.7016 6.69375 19.8422 6.40782 19.6172 6.10782L18.2203 4.22813C18.1219 4.10157 18.0844 3.94219 18.1078 3.78282C18.1266 3.62813 18.2109 3.4875 18.3375 3.38907L18.675 3.13594C18.1359 3.11719 17.5922 3.11719 17.0391 3.18282C12.0703 3.73594 8.08125 7.82344 7.6125 12.8391C7.21406 17.0766 9.25781 20.8688 12.4875 22.9594C13.4672 23.5969 14.0953 24.6609 14.0953 25.8328V28.2563C14.0953 29.2453 14.8969 30.0516 15.8812 30.0516H20.6297C21.6141 30.0516 22.4156 29.2453 22.4156 28.2563V25.8844C22.4156 24.6797 23.0578 23.5922 24.0609 22.9406C24.9984 22.3266 25.8328 21.5672 26.5406 20.7C26.4469 20.7516 26.3484 20.7891 26.2406 20.7891ZM18.8484 28.2563H17.6625V26.4563H18.8484V28.2563ZM17.6625 25.2609C17.6625 23.6766 16.7062 22.2797 15.225 21.6938C12.0141 20.4281 9.9375 17.3625 9.9375 13.8891C9.9375 10.9922 11.3906 8.34375 13.8187 6.79688L14.4562 7.80938C12.3703 9.13594 11.1281 11.4047 11.1281 13.8891C11.1281 16.8656 12.9047 19.4906 15.6562 20.5781C17.5969 21.3422 18.8484 23.1844 18.8484 25.2609H17.6625Z" fill="white"/>
<mask id="mask0_46_39" style="mask-type:luminance" maskUnits="userSpaceOnUse" x="15" y="32" width="7" height="3">
<path d="M15.6 32.4H21.6V34.8375H15.6V32.4Z" fill="white"/>
</mask>
<g mask="url(#mask0_46_39)">
<path d="M17.0672 34.8375H19.4437C20.1 34.8375 20.6297 34.3032 20.6297 33.6422V33.0422H15.8812V33.6422C15.8812 34.3032 16.4109 34.8375 17.0672 34.8375Z" fill="white"/>
</g>
<path d="M4.43437 21.0703C4.43437 19.2422 5.79843 17.7281 7.55625 17.5078C7.34062 16.8516 7.18593 16.1719 7.0875 15.4781L6.98437 15.9797C6.9 16.3735 6.62812 16.6969 6.25781 16.8422C5.89219 16.9922 5.475 16.9453 5.14687 16.7156L3.90937 15.8625L2.82656 16.95L3.67969 18.1969C3.90469 18.525 3.95156 18.9469 3.80625 19.3172C3.65625 19.6922 3.3375 19.9641 2.94375 20.0438L1.46719 20.3578V21.7828L2.94375 22.0969C3.3375 22.1766 3.65625 22.4485 3.80625 22.8235C3.95156 23.1985 3.90469 23.6156 3.67969 23.9485L2.82656 25.1906L3.90937 26.2828L5.14687 25.425C5.475 25.1953 5.89219 25.1485 6.2625 25.2985C6.62812 25.4438 6.9 25.7672 6.98437 26.161L7.29375 27.6563H8.70468L9.01875 26.161C9.09843 25.7719 9.37031 25.4485 9.73593 25.2985C10.1109 25.1485 10.5281 25.1953 10.8516 25.425L12.0891 26.2828L13.3641 24.9985C13.1578 24.3844 12.7453 23.8406 12.1641 23.4656C11.8078 23.236 11.475 22.9828 11.1469 22.7156C10.5469 23.8781 9.34219 24.661 8.00156 24.661C6.03281 24.661 4.43437 23.0531 4.43437 21.0703Z" fill="white"/>
<path d="M15.8813 30.6469H20.6297V31.8469H15.8813V30.6469Z" fill="white"/>
<mask id="mask1_46_39" style="mask-type:luminance" maskUnits="userSpaceOnUse" x="16" y="1" width="19" height="20">
<path d="M16.8 1.20001H34.8516V20.4H16.8V1.20001Z" fill="white"/>
</mask>
<g mask="url(#mask1_46_39)">
<path d="M33.0891 10.2891C32.3625 10.1859 31.7953 9.67501 31.6172 8.95782C31.4344 8.24063 31.6828 7.51876 32.2734 7.07344L33.6656 6.02344L32.2406 4.10626L30.8484 5.16094C30.2578 5.60157 29.4984 5.64376 28.8703 5.26876C28.2375 4.88907 27.9094 4.20001 28.0125 3.46876L28.2609 1.73438L25.9078 1.39688L25.6594 3.13126C25.5562 3.86251 25.05 4.43438 24.3375 4.61719C23.625 4.80001 22.9125 4.54688 22.4719 3.95626L21.4266 2.55001L19.5234 3.98907L20.5687 5.39063C21.0094 5.98126 21.0516 6.74532 20.6766 7.38282C20.3016 8.02032 19.6219 8.34844 18.8906 8.24532L17.1703 7.99688L16.8328 10.3688L18.5578 10.6172C19.2844 10.7203 19.8469 11.2313 20.0297 11.9484C20.2125 12.6656 19.9594 13.3875 19.3734 13.8328L17.9812 14.8828L19.4062 16.8L20.7984 15.7453C21.3844 15.3 22.1437 15.2625 22.7766 15.6375C23.4094 16.0172 23.7375 16.7063 23.6297 17.4375L23.3859 19.1719L25.7391 19.5094L25.9828 17.775C26.0859 17.0438 26.5969 16.4719 27.3047 16.2891C28.0172 16.1063 28.7344 16.3594 29.175 16.9547L30.2203 18.3563L32.1187 16.9172L31.0734 15.5156C30.6328 14.925 30.5953 14.1609 30.9703 13.5234C31.3406 12.8859 32.0203 12.5531 32.7516 12.6609L34.4766 12.9094L34.8094 10.5375L33.0891 10.2891ZM25.8234 14.0438C23.8547 14.0438 22.2562 12.4359 22.2562 10.4531C22.2562 8.47501 23.8547 6.86251 25.8234 6.86251C27.7875 6.86251 29.3859 8.47501 29.3859 10.4531C29.3859 12.4359 27.7875 14.0438 25.8234 14.0438Z" fill="white"/>
</g>
<path d="M29.5453 22.2703H33.7031V23.4656H29.5453V22.2703Z" fill="white"/>
<path d="M28.5703 26.3203L29.3297 25.4016L32.8922 28.3922L32.1328 29.3109L28.5703 26.3203Z" fill="white"/>
<path d="M25.9781 27.0563H27.1687V31.2469H25.9781V27.0563Z" fill="white"/>
<mask id="mask2_46_39" style="mask-type:luminance" maskUnits="userSpaceOnUse" x="0" y="8" width="6" height="4">
<path d="M0.885941 8.39999H6V12H0.885941V8.39999Z" fill="white"/>
</mask>
<g mask="url(#mask2_46_39)">
<path d="M0.881256 10.3125L5.63438 9.11719L5.92501 10.2797L1.17188 11.475L0.881256 10.3125Z" fill="white"/>
</g>
<path d="M1.87032 4.20001L2.55938 3.22501L6.71719 6.21563L6.02813 7.19063L1.87032 4.20001Z" fill="white"/>
<path d="M6.96094 0.267175L8.10938 -0.0281372L9.32813 4.7578L8.175 5.0578L6.96094 0.267175Z" fill="white"/>
</g>
<defs>
<clipPath id="clip0_46_39">
<rect width="36" height="36" fill="white"/>
</clipPath>
</defs>
</svg>
