<svg width="40" height="40" viewBox="0 0 40 40" fill="none" xmlns="http://www.w3.org/2000/svg">
<path d="M20.3802 21.9114C20.1354 21.9114 19.8958 21.8698 19.6563 21.7916L8.60937 18.0677C8.40625 18.5937 8.30729 19.2708 8.30729 20.2604C9.02604 20.6823 9.72917 21.5312 9.72917 22.9948C9.72917 23.8906 9.28646 24.5364 8.90625 24.9635C10.5469 26.8854 15.0573 28.2708 20.3802 28.2708C27.0885 28.2708 32.526 26.0729 32.526 23.375C32.526 22.776 32.526 20.3385 32.526 17.9427L21.099 21.7916C20.8646 21.8698 20.6198 21.9114 20.3802 21.9114Z" fill="white"/>
<mask id="mask0_46_72" style="mask-type:luminance" maskUnits="userSpaceOnUse" x="0" y="5" width="40" height="29">
<path d="M0.645834 5.94791H39.3542V33.0417H0.645834V5.94791Z" fill="white"/>
</mask>
<g mask="url(#mask0_46_72)">
<path d="M38.8333 12.25L20.6198 6.10937C20.4635 6.05729 20.2969 6.05729 20.1406 6.10937L1.92188 12.25C1.61458 12.3542 1.40625 12.6458 1.40625 12.974C1.40625 13.3073 1.61458 13.599 1.92188 13.7031L6.09896 15.1094C5.14063 16.2344 4.57813 17.8229 4.375 20.4063C3.71354 20.724 3.25 21.3906 3.25 22.1823C3.25 22.9844 3.72396 23.6667 4.40625 23.974C3.8125 29.1979 0.71875 30.9375 0.71875 31.3854C0.71875 31.6146 3.11458 32.9219 3.68229 32.9219C4.5625 32.9219 6.67708 31.4115 6.67708 28.151C6.67708 26.2292 6.50521 24.776 6.32292 23.75C6.8125 23.3906 7.15104 22.8385 7.15104 22.1823C7.15104 21.4635 6.75521 20.8646 6.1875 20.5208C6.50521 16.2552 7.8125 15.5417 10.9687 14.2187C11.2813 14.0937 11.8802 13.849 12.224 13.7083C12.8437 13.4479 13.401 13.2187 13.9375 13C15.6771 12.3021 17.1406 11.7448 18.2604 11.3281C19.4844 10.8854 20.0365 10.724 20.0521 10.7187C20.526 10.5573 21.0469 10.8177 21.2083 11.2969C21.3646 11.7813 21.1094 12.3021 20.6354 12.4635C20.599 12.4792 18.4635 13.0937 12.9219 15.4115C12.5625 15.5573 12.224 15.6927 11.901 15.8229C11.2448 16.0833 10.6979 16.2969 10.2396 16.5052L20.1406 19.8385C20.2187 19.8646 20.2969 19.8802 20.3802 19.8802C20.4635 19.8802 20.5417 19.8646 20.6198 19.8385L38.8333 13.7031C39.1458 13.599 39.3542 13.3073 39.3542 12.974C39.3542 12.6458 39.1458 12.3542 38.8333 12.25Z" fill="white"/>
</g>
</svg>
