<svg width="16" height="16" viewBox="0 0 16 16" fill="none" xmlns="http://www.w3.org/2000/svg">
<path d="M0 8C0 5.87827 0.842855 3.84344 2.34315 2.34315C3.84344 0.842855 5.87827 0 8 0C10.1217 0 12.1566 0.842855 13.6569 2.34315C15.1571 3.84344 16 5.87827 16 8C16 10.1217 15.1571 12.1566 13.6569 13.6569C12.1566 15.1571 10.1217 16 8 16C5.87827 16 3.84344 15.1571 2.34315 13.6569C0.842855 12.1566 0 10.1217 0 8ZM7.5 1.077C6.83 1.281 6.165 1.897 5.613 2.932C5.46967 3.20067 5.338 3.49133 5.218 3.804C5.923 3.961 6.69 4.061 7.5 4.091V1.077ZM4.249 3.539C4.39167 3.15433 4.552 2.795 4.73 2.461C4.90404 2.13472 5.10367 1.82274 5.327 1.528C4.47554 1.88057 3.70208 2.39779 3.051 3.05C3.41367 3.23467 3.813 3.397 4.249 3.539ZM3.509 7.5C3.545 6.43 3.697 5.413 3.945 4.492C3.40344 4.31958 2.87944 4.09625 2.38 3.825C1.58335 4.89424 1.1106 6.16982 1.018 7.5H3.509ZM4.909 4.759C4.67288 5.65469 4.5387 6.57419 4.509 7.5H7.5V5.091C6.59 5.061 5.717 4.946 4.909 4.759ZM8.5 5.09V7.5H11.49C11.4606 6.57422 11.3268 5.65473 11.091 4.759C10.283 4.946 9.41 5.059 8.5 5.09ZM4.51 8.5C4.545 9.487 4.686 10.414 4.909 11.241C5.76005 11.0478 6.62771 10.9369 7.5 10.91V8.5H4.51ZM8.5 8.5V10.909C9.41 10.939 10.283 11.054 11.091 11.241C11.314 10.414 11.455 9.487 11.491 8.5H8.5ZM5.218 12.196C5.338 12.5087 5.46967 12.7993 5.613 13.068C6.165 14.103 6.831 14.718 7.5 14.923V11.91C6.69 11.94 5.923 12.039 5.218 12.196ZM5.328 14.472C5.10432 14.1773 4.90436 13.8653 4.73 13.539C4.54621 13.1903 4.38553 12.8298 4.249 12.46C3.83766 12.5923 3.43714 12.7561 3.051 12.95C3.70208 13.6022 4.47654 14.1194 5.328 14.472ZM3.945 11.508C3.68572 10.5252 3.53911 9.516 3.508 8.5H1.018C1.1106 9.83018 1.58335 11.1058 2.38 12.175C2.85 11.917 3.375 11.693 3.945 11.508ZM10.673 14.472C11.524 14.1196 12.2971 13.6027 12.948 12.951C12.5622 12.7571 12.162 12.5933 11.751 12.461C11.6144 12.8305 11.4538 13.1906 11.27 13.539C11.096 13.8653 10.8963 14.1773 10.673 14.472ZM8.5 11.909V14.923C9.17 14.719 9.835 14.103 10.387 13.068C10.531 12.7993 10.6627 12.5087 10.782 12.196C10.0316 12.0313 9.26779 11.9346 8.5 11.909ZM12.055 11.508C12.625 11.693 13.15 11.917 13.62 12.175C14.4167 11.1058 14.8894 9.83018 14.982 8.5H12.492C12.4609 9.516 12.3143 10.5252 12.055 11.508ZM14.982 7.5C14.8894 6.16982 14.4167 4.89424 13.62 3.825C13.15 4.083 12.625 4.307 12.055 4.492C12.303 5.412 12.455 6.43 12.492 7.5H14.982ZM11.27 2.461C11.4473 2.79567 11.608 3.155 11.752 3.539C12.1627 3.40663 12.5625 3.24281 12.948 3.049C12.297 2.39762 11.5239 1.88109 10.673 1.529C10.891 1.812 11.091 2.126 11.27 2.461ZM10.782 3.804C10.6679 3.50571 10.536 3.21452 10.387 2.932C9.835 1.897 9.17 1.282 8.5 1.077V4.09C9.31 4.06 10.077 3.961 10.782 3.804Z" fill="white"/>
</svg>
