<svg width="219" height="64" viewBox="0 0 219 64" fill="none" xmlns="http://www.w3.org/2000/svg">
<path d="M42.3354 44.7213C41.5402 44.7213 40.8957 45.3691 40.8957 46.1669C40.8957 46.6002 41.0862 46.9888 41.3869 47.2539L39.1469 55.4522H30.3814L34.5964 36.4741C34.6461 36.2512 34.5914 36.0168 34.4489 35.8387C34.3064 35.6597 34.091 35.5562 33.8632 35.5562H22.2356C21.8993 35.5562 21.6043 35.7807 21.5132 36.1054L16.0771 55.4522H5.19673L16.9859 12.9403C17.5766 12.7597 18.0057 12.2088 18.0057 11.5576C18.0057 10.7598 17.3612 10.112 16.5659 10.112C15.7698 10.112 15.1253 10.7598 15.1253 11.5576C15.1253 11.9487 15.2802 12.3024 15.5312 12.5634L3.48357 56.004C3.42061 56.2318 3.467 56.4753 3.60949 56.6626C3.75114 56.8506 3.97233 56.96 4.2076 56.96H16.6454C16.9818 56.96 17.2775 56.7355 17.3686 56.4107L22.8047 37.0648H32.9255L28.7113 56.0429C28.6616 56.2657 28.7155 56.5002 28.8579 56.6775C29.0004 56.8564 29.2167 56.96 29.4445 56.96H39.7193C40.0573 56.96 40.3547 56.733 40.4433 56.4058L42.8764 47.5065C43.4033 47.292 43.7761 46.7734 43.7761 46.1669C43.7761 45.3691 43.1316 44.7213 42.3354 44.7213Z" fill="#0DB75F"/>
<path d="M21.5366 19.2787C22.3319 19.2787 22.9764 18.6309 22.9764 17.8331C22.9764 17.3998 22.7859 17.0113 22.4852 16.7462L24.7252 8.54783L33.4907 8.54783L29.2757 27.5259C29.226 27.7488 29.2807 27.9832 29.4231 28.1614C29.5656 28.3403 29.781 28.4439 30.0088 28.4439H41.6365C41.9728 28.4439 42.2677 28.2194 42.3589 27.8946L47.7949 8.54783H58.6753L46.8862 51.0597C46.2955 51.2403 45.8664 51.7912 45.8664 52.4424C45.8664 53.2402 46.5109 53.888 47.3062 53.888C48.1023 53.888 48.7468 53.2402 48.7468 52.4424C48.7468 52.0514 48.5919 51.6976 48.3409 51.4366L60.3885 7.99608C60.4515 7.76826 60.4051 7.52469 60.2626 7.33746C60.1209 7.14941 59.8997 7.04005 59.6645 7.04005H47.2266C46.8903 7.04005 46.5946 7.26455 46.5034 7.58931L41.0674 26.9353H30.9466L35.1608 7.95714C35.2105 7.73429 35.1566 7.49984 35.0141 7.32255C34.8716 7.1436 34.6554 7.04005 34.4276 7.04005L24.1528 7.04005C23.8148 7.04005 23.5174 7.26704 23.4287 7.59428L20.9957 16.4935C20.4688 16.7081 20.096 17.2267 20.096 17.8331C20.096 18.6309 20.7405 19.2787 21.5366 19.2787Z" fill="#0DB75F"/>
<path d="M84.1367 32.0625L83.7266 34.3945H74.9141L75.3242 32.0625H84.1367ZM77.293 24.9375L74.3281 42H71.4453L74.4102 24.9375H77.293ZM87.5586 24.9375L84.5938 42H81.7461L84.6992 24.9375H87.5586ZM91.543 40.4766L96.7695 29.3203H99.8164L92.3867 43.9453C92.1758 44.3828 91.9336 44.7969 91.6602 45.1875C91.3945 45.5781 91.0898 45.9219 90.7461 46.2188C90.4023 46.5156 90.0156 46.7461 89.5859 46.9102C89.1641 47.082 88.6875 47.168 88.1562 47.168C87.9141 47.1602 87.6758 47.1328 87.4414 47.0859C87.1992 47.0469 86.9609 47 86.7266 46.9453L86.9258 44.7773C87.0117 44.7852 87.0977 44.793 87.1836 44.8008C87.2695 44.8164 87.3555 44.8242 87.4414 44.8242C87.8867 44.8398 88.2773 44.7812 88.6133 44.6484C88.9492 44.5234 89.2422 44.3281 89.4922 44.0625C89.75 43.7969 89.9766 43.4727 90.1719 43.0898L91.543 40.4766ZM91.5664 29.3203L92.8555 38.9531L92.832 41.8359L90.9102 42.3281L88.6836 29.3203H91.5664ZM106.344 39.457L107.305 33.375C107.352 32.9688 107.324 32.6016 107.223 32.2734C107.121 31.9453 106.934 31.6875 106.66 31.5C106.395 31.3047 106.043 31.2031 105.605 31.1953C105.215 31.1875 104.848 31.2539 104.504 31.3945C104.16 31.5273 103.867 31.7266 103.625 31.9922C103.391 32.2578 103.234 32.582 103.156 32.9648L100.402 32.9766C100.449 32.3125 100.645 31.7344 100.988 31.2422C101.34 30.7422 101.781 30.332 102.312 30.0117C102.852 29.6836 103.43 29.4453 104.047 29.2969C104.672 29.1406 105.281 29.0664 105.875 29.0742C106.734 29.0898 107.496 29.2734 108.16 29.625C108.824 29.9766 109.328 30.4727 109.672 31.1133C110.023 31.7539 110.156 32.5273 110.07 33.4336L109.145 39.082C109.074 39.5273 109.023 39.9844 108.992 40.4531C108.969 40.9141 109.031 41.3594 109.18 41.7891L109.156 42L106.426 42.0117C106.309 41.5977 106.25 41.1758 106.25 40.7461C106.25 40.3086 106.281 39.8789 106.344 39.457ZM107.621 34.2891L107.34 36.0352L105.512 36.0234C105.137 36.0234 104.75 36.0586 104.352 36.1289C103.961 36.1992 103.594 36.3203 103.25 36.4922C102.906 36.6641 102.617 36.8984 102.383 37.1953C102.148 37.4844 102.004 37.8477 101.949 38.2852C101.91 38.6367 101.949 38.9414 102.066 39.1992C102.191 39.4492 102.379 39.6484 102.629 39.7969C102.879 39.9453 103.176 40.0234 103.52 40.0312C103.98 40.0391 104.434 39.9492 104.879 39.7617C105.332 39.5742 105.723 39.3086 106.051 38.9648C106.387 38.6133 106.617 38.2109 106.742 37.7578L107.48 39.0234C107.309 39.5 107.066 39.9375 106.754 40.3359C106.449 40.7344 106.094 41.0781 105.688 41.3672C105.281 41.6562 104.836 41.8789 104.352 42.0352C103.875 42.1914 103.383 42.2656 102.875 42.2578C102.172 42.2422 101.531 42.082 100.953 41.7773C100.375 41.4648 99.918 41.0312 99.582 40.4766C99.2461 39.9219 99.0977 39.2812 99.1367 38.5547C99.1758 37.7344 99.3828 37.0508 99.7578 36.5039C100.141 35.9492 100.629 35.5117 101.223 35.1914C101.824 34.8633 102.48 34.6289 103.191 34.4883C103.902 34.3477 104.605 34.2773 105.301 34.2773L107.621 34.2891ZM115.93 32.1914L114.23 42H111.465L113.668 29.3203H116.258L115.93 32.1914ZM114.957 35.1914L114.113 35.2031C114.207 34.4453 114.391 33.6992 114.664 32.9648C114.945 32.2227 115.316 31.5586 115.777 30.9727C116.238 30.3789 116.797 29.9102 117.453 29.5664C118.117 29.2227 118.883 29.0625 119.75 29.0859C120.438 29.1016 121.008 29.2383 121.461 29.4961C121.922 29.7539 122.277 30.1016 122.527 30.5391C122.785 30.9766 122.953 31.4766 123.031 32.0391C123.109 32.6016 123.113 33.1914 123.043 33.8086L121.684 42H118.906L120.289 33.7734C120.336 33.3203 120.32 32.9141 120.242 32.5547C120.164 32.1875 119.992 31.8984 119.727 31.6875C119.461 31.4688 119.078 31.3555 118.578 31.3477C118.031 31.332 117.551 31.4336 117.137 31.6523C116.723 31.8711 116.367 32.1719 116.07 32.5547C115.773 32.9297 115.531 33.3477 115.344 33.8086C115.164 34.2695 115.035 34.7305 114.957 35.1914ZM136.473 24.9375L133.508 42H130.625L133.59 24.9375H136.473ZM141.922 32.4023L141.512 34.7344H134.023L134.434 32.4023H141.922ZM144.16 24.9375L143.75 27.2812H135.312L135.734 24.9375H144.16ZM148.625 42.2344C147.758 42.2188 146.988 42.0508 146.316 41.7305C145.652 41.4023 145.102 40.9609 144.664 40.4062C144.227 39.8438 143.91 39.1992 143.715 38.4727C143.52 37.7383 143.453 36.957 143.516 36.1289L143.562 35.6484C143.648 34.7969 143.855 33.9766 144.184 33.1875C144.512 32.3906 144.949 31.6836 145.496 31.0664C146.051 30.4414 146.703 29.9492 147.453 29.5898C148.203 29.2305 149.039 29.0625 149.961 29.0859C150.844 29.1016 151.59 29.2852 152.199 29.6367C152.809 29.9883 153.293 30.457 153.652 31.043C154.012 31.6211 154.25 32.2773 154.367 33.0117C154.492 33.7461 154.512 34.5078 154.426 35.2969L154.262 36.5039H144.746L145.074 34.4766L151.789 34.4883L151.836 34.2422C151.906 33.75 151.879 33.2852 151.754 32.8477C151.637 32.4102 151.418 32.0508 151.098 31.7695C150.777 31.4883 150.348 31.3398 149.809 31.3242C149.223 31.3086 148.719 31.4297 148.297 31.6875C147.883 31.9453 147.539 32.293 147.266 32.7305C146.992 33.168 146.777 33.6445 146.621 34.1602C146.473 34.668 146.367 35.1641 146.305 35.6484L146.258 36.1172C146.211 36.5781 146.223 37.0352 146.293 37.4883C146.363 37.9414 146.5 38.3555 146.703 38.7305C146.906 39.0977 147.188 39.3984 147.547 39.6328C147.906 39.8594 148.352 39.9805 148.883 39.9961C149.547 40.0117 150.148 39.875 150.688 39.5859C151.234 39.2891 151.73 38.9062 152.176 38.4375L153.535 39.8789C153.176 40.418 152.73 40.8633 152.199 41.2148C151.676 41.5664 151.105 41.8281 150.488 42C149.879 42.1641 149.258 42.2422 148.625 42.2344ZM159.922 31.875L158.164 42H155.41L157.613 29.3203H160.227L159.922 31.875ZM164.047 29.2148L163.742 31.8516C163.562 31.8203 163.379 31.793 163.191 31.7695C163.012 31.7461 162.832 31.7344 162.652 31.7344C162.176 31.7266 161.746 31.793 161.363 31.9336C160.98 32.0742 160.645 32.2773 160.355 32.543C160.066 32.8008 159.824 33.1133 159.629 33.4805C159.434 33.8398 159.281 34.2422 159.172 34.6875L158.516 34.7344C158.594 34.1172 158.727 33.4766 158.914 32.8125C159.109 32.1484 159.379 31.5312 159.723 30.9609C160.066 30.3828 160.504 29.918 161.035 29.5664C161.566 29.207 162.211 29.0352 162.969 29.0508C163.148 29.0508 163.328 29.0664 163.508 29.0977C163.688 29.1289 163.867 29.168 164.047 29.2148ZM168.148 31.875L166.391 42H163.637L165.84 29.3203H168.453L168.148 31.875ZM172.273 29.2148L171.969 31.8516C171.789 31.8203 171.605 31.793 171.418 31.7695C171.238 31.7461 171.059 31.7344 170.879 31.7344C170.402 31.7266 169.973 31.793 169.59 31.9336C169.207 32.0742 168.871 32.2773 168.582 32.543C168.293 32.8008 168.051 33.1133 167.855 33.4805C167.66 33.8398 167.508 34.2422 167.398 34.6875L166.742 34.7344C166.82 34.1172 166.953 33.4766 167.141 32.8125C167.336 32.1484 167.605 31.5312 167.949 30.9609C168.293 30.3828 168.73 29.918 169.262 29.5664C169.793 29.207 170.438 29.0352 171.195 29.0508C171.375 29.0508 171.555 29.0664 171.734 29.0977C171.914 29.1289 172.094 29.168 172.273 29.2148ZM177.312 42.2344C176.445 42.2188 175.676 42.0508 175.004 41.7305C174.34 41.4023 173.789 40.9609 173.352 40.4062C172.914 39.8438 172.598 39.1992 172.402 38.4727C172.207 37.7383 172.141 36.957 172.203 36.1289L172.25 35.6484C172.336 34.7969 172.543 33.9766 172.871 33.1875C173.199 32.3906 173.637 31.6836 174.184 31.0664C174.738 30.4414 175.391 29.9492 176.141 29.5898C176.891 29.2305 177.727 29.0625 178.648 29.0859C179.531 29.1016 180.277 29.2852 180.887 29.6367C181.496 29.9883 181.98 30.457 182.34 31.043C182.699 31.6211 182.938 32.2773 183.055 33.0117C183.18 33.7461 183.199 34.5078 183.113 35.2969L182.949 36.5039H173.434L173.762 34.4766L180.477 34.4883L180.523 34.2422C180.594 33.75 180.566 33.2852 180.441 32.8477C180.324 32.4102 180.105 32.0508 179.785 31.7695C179.465 31.4883 179.035 31.3398 178.496 31.3242C177.91 31.3086 177.406 31.4297 176.984 31.6875C176.57 31.9453 176.227 32.293 175.953 32.7305C175.68 33.168 175.465 33.6445 175.309 34.1602C175.16 34.668 175.055 35.1641 174.992 35.6484L174.945 36.1172C174.898 36.5781 174.91 37.0352 174.98 37.4883C175.051 37.9414 175.188 38.3555 175.391 38.7305C175.594 39.0977 175.875 39.3984 176.234 39.6328C176.594 39.8594 177.039 39.9805 177.57 39.9961C178.234 40.0117 178.836 39.875 179.375 39.5859C179.922 39.2891 180.418 38.9062 180.863 38.4375L182.223 39.8789C181.863 40.418 181.418 40.8633 180.887 41.2148C180.363 41.5664 179.793 41.8281 179.176 42C178.566 42.1641 177.945 42.2422 177.312 42.2344ZM189.23 29.3203L187.027 42H184.273L186.477 29.3203H189.23ZM186.863 26.0391C186.855 25.5859 187.004 25.2148 187.309 24.9258C187.613 24.6367 187.988 24.4883 188.434 24.4805C188.863 24.4727 189.23 24.6055 189.535 24.8789C189.848 25.1445 190.004 25.5 190.004 25.9453C190.012 26.3984 189.859 26.7656 189.547 27.0469C189.242 27.3281 188.871 27.4727 188.434 27.4805C188.004 27.4883 187.637 27.3633 187.332 27.1055C187.027 26.8398 186.871 26.4844 186.863 26.0391ZM194.539 31.875L192.781 42H190.027L192.23 29.3203H194.844L194.539 31.875ZM198.664 29.2148L198.359 31.8516C198.18 31.8203 197.996 31.793 197.809 31.7695C197.629 31.7461 197.449 31.7344 197.27 31.7344C196.793 31.7266 196.363 31.793 195.98 31.9336C195.598 32.0742 195.262 32.2773 194.973 32.543C194.684 32.8008 194.441 33.1133 194.246 33.4805C194.051 33.8398 193.898 34.2422 193.789 34.6875L193.133 34.7344C193.211 34.1172 193.344 33.4766 193.531 32.8125C193.727 32.1484 193.996 31.5312 194.34 30.9609C194.684 30.3828 195.121 29.918 195.652 29.5664C196.184 29.207 196.828 29.0352 197.586 29.0508C197.766 29.0508 197.945 29.0664 198.125 29.0977C198.305 29.1289 198.484 29.168 198.664 29.2148ZM205.227 39.457L206.188 33.375C206.234 32.9688 206.207 32.6016 206.105 32.2734C206.004 31.9453 205.816 31.6875 205.543 31.5C205.277 31.3047 204.926 31.2031 204.488 31.1953C204.098 31.1875 203.73 31.2539 203.387 31.3945C203.043 31.5273 202.75 31.7266 202.508 31.9922C202.273 32.2578 202.117 32.582 202.039 32.9648L199.285 32.9766C199.332 32.3125 199.527 31.7344 199.871 31.2422C200.223 30.7422 200.664 30.332 201.195 30.0117C201.734 29.6836 202.312 29.4453 202.93 29.2969C203.555 29.1406 204.164 29.0664 204.758 29.0742C205.617 29.0898 206.379 29.2734 207.043 29.625C207.707 29.9766 208.211 30.4727 208.555 31.1133C208.906 31.7539 209.039 32.5273 208.953 33.4336L208.027 39.082C207.957 39.5273 207.906 39.9844 207.875 40.4531C207.852 40.9141 207.914 41.3594 208.062 41.7891L208.039 42L205.309 42.0117C205.191 41.5977 205.133 41.1758 205.133 40.7461C205.133 40.3086 205.164 39.8789 205.227 39.457ZM206.504 34.2891L206.223 36.0352L204.395 36.0234C204.02 36.0234 203.633 36.0586 203.234 36.1289C202.844 36.1992 202.477 36.3203 202.133 36.4922C201.789 36.6641 201.5 36.8984 201.266 37.1953C201.031 37.4844 200.887 37.8477 200.832 38.2852C200.793 38.6367 200.832 38.9414 200.949 39.1992C201.074 39.4492 201.262 39.6484 201.512 39.7969C201.762 39.9453 202.059 40.0234 202.402 40.0312C202.863 40.0391 203.316 39.9492 203.762 39.7617C204.215 39.5742 204.605 39.3086 204.934 38.9648C205.27 38.6133 205.5 38.2109 205.625 37.7578L206.363 39.0234C206.191 39.5 205.949 39.9375 205.637 40.3359C205.332 40.7344 204.977 41.0781 204.57 41.3672C204.164 41.6562 203.719 41.8789 203.234 42.0352C202.758 42.1914 202.266 42.2656 201.758 42.2578C201.055 42.2422 200.414 42.082 199.836 41.7773C199.258 41.4648 198.801 41.0312 198.465 40.4766C198.129 39.9219 197.98 39.2812 198.02 38.5547C198.059 37.7344 198.266 37.0508 198.641 36.5039C199.023 35.9492 199.512 35.5117 200.105 35.1914C200.707 34.8633 201.363 34.6289 202.074 34.4883C202.785 34.3477 203.488 34.2773 204.184 34.2773L206.504 34.2891Z" fill="#0DB75F"/>
</svg>
