<svg width="64" height="64" viewBox="0 0 64 64" fill="none" xmlns="http://www.w3.org/2000/svg">
<g clip-path="url(#clip0_2_7)">
<mask id="mask0_2_7" style="mask-type:luminance" maskUnits="userSpaceOnUse" x="0" y="0" width="64" height="64">
<path d="M6.4 0H57.6C61.1347 0 64 2.86533 64 6.4V57.6C64 61.1347 61.1347 64 57.6 64H6.4C2.86533 64 0 61.1347 0 57.6V6.4C0 2.86533 2.86533 0 6.4 0Z" fill="white"/>
</mask>
<g mask="url(#mask0_2_7)">
<path d="M70.4 -6.39999H-6.40002V70.4H70.4V-6.39999Z" fill="#0DB75F"/>
</g>
<path d="M41.3478 43.4708C40.6329 43.4708 40.0536 44.0532 40.0536 44.7703C40.0536 45.1597 40.2248 45.509 40.4952 45.7473L38.4816 53.1166H30.6026L34.3913 36.0576C34.436 35.8573 34.3868 35.6465 34.2588 35.4864C34.1307 35.3256 33.9371 35.2325 33.7323 35.2325H23.2805C22.9782 35.2325 22.7131 35.4343 22.6312 35.7262L17.7448 53.1166H7.96468L18.5617 14.9036C19.0926 14.7413 19.4783 14.2461 19.4783 13.6608C19.4783 12.9437 18.899 12.3613 18.1842 12.3613C17.4686 12.3613 16.8892 12.9437 16.8892 13.6608C16.8892 14.0123 17.0285 14.3302 17.2541 14.5648L6.42475 53.6125C6.36816 53.8173 6.40986 54.0363 6.53794 54.2046C6.66527 54.3736 6.86409 54.4719 7.07557 54.4719H18.2556C18.558 54.4719 18.8238 54.2701 18.9057 53.9782L23.7921 36.5885H32.8894L29.1014 53.6475C29.0567 53.8479 29.1051 54.0586 29.2332 54.218C29.3612 54.3788 29.5556 54.4719 29.7604 54.4719H38.9962C39.3 54.4719 39.5673 54.2679 39.647 53.9737L41.834 45.9744C42.3076 45.7815 42.6427 45.3154 42.6427 44.7703C42.6427 44.0532 42.0634 43.4708 41.3478 43.4708Z" fill="white"/>
<path d="M22.6523 20.601C23.3671 20.601 23.9465 20.0187 23.9465 19.3016C23.9465 18.9121 23.7752 18.5629 23.5049 18.3246L25.5184 10.9553L33.3975 10.9553L29.6087 28.0143C29.5641 28.2146 29.6132 28.4253 29.7413 28.5854C29.8694 28.7463 30.063 28.8394 30.2678 28.8394H40.7196C41.0219 28.8394 41.287 28.6376 41.3689 28.3457L46.2552 10.9553H56.0354L45.4384 49.1682C44.9074 49.3306 44.5217 49.8258 44.5217 50.4111C44.5217 51.1282 45.101 51.7105 45.8159 51.7105C46.5315 51.7105 47.1108 51.1282 47.1108 50.4111C47.1108 50.0596 46.9716 49.7416 46.746 49.5071L57.5753 10.4593C57.6319 10.2545 57.5902 10.0356 57.4621 9.86732C57.3348 9.69827 57.136 9.59998 56.9245 9.59998H45.7444C45.4421 9.59998 45.1763 9.80178 45.0943 10.0937L40.208 27.4833H31.1107L34.8987 10.4243C34.9434 10.224 34.895 10.0133 34.7669 9.85391C34.6388 9.69306 34.4445 9.59998 34.2397 9.59998L25.0039 9.59998C24.7001 9.59998 24.4327 9.80402 24.3531 10.0982L22.166 18.0975C21.6924 18.2903 21.3574 18.7565 21.3574 19.3016C21.3574 20.0187 21.9367 20.601 22.6523 20.601Z" fill="white"/>
</g>
<defs>
<clipPath id="clip0_2_7">
<rect width="64" height="64" fill="white"/>
</clipPath>
</defs>
</svg>
