<svg width="18" height="24" viewBox="0 0 18 24" fill="none" xmlns="http://www.w3.org/2000/svg">
<path d="M18 21V6.75L11.25 0H3C2.20435 0 1.44129 0.316071 0.87868 0.87868C0.31607 1.44129 0 2.20435 0 3V21C0 21.7956 0.31607 22.5587 0.87868 23.1213C1.44129 23.6839 2.20435 24 3 24H15C15.7956 24 16.5587 23.6839 17.1213 23.1213C17.6839 22.5587 18 21.7956 18 21ZM11.25 4.5C11.25 5.09674 11.4871 5.66903 11.909 6.09099C12.331 6.51295 12.9033 6.75 13.5 6.75H16.5V13.5H1.5V3C1.5 2.60218 1.65804 2.22064 1.93934 1.93934C2.22064 1.65804 2.60218 1.5 3 1.5H11.25V4.5ZM1.5 18V15H4.5V18H1.5ZM1.5 19.5H4.5V22.5H3C2.60218 22.5 2.22064 22.342 1.93934 22.0607C1.65804 21.7794 1.5 21.3978 1.5 21V19.5ZM6 22.5V19.5H10.5V22.5H6ZM12 22.5V19.5H16.5V21C16.5 21.3978 16.342 21.7794 16.0607 22.0607C15.7794 22.342 15.3978 22.5 15 22.5H12ZM16.5 18H12V15H16.5V18ZM6 18V15H10.5V18H6Z" fill="#0DB75F"/>
</svg>
