<svg width="64" height="64" viewBox="0 0 64 64" fill="none" xmlns="http://www.w3.org/2000/svg">
<g clip-path="url(#clip0_380_2)">
<path d="M16.229 63.7735C13.7535 63.7459 11.3014 63.2918 8.98008 62.4314C7.28499 61.8048 5.75135 60.8073 4.49129 59.5118C3.19233 58.2543 2.19337 56.7203 1.56863 55.0237C0.708865 52.7025 0.255487 50.2505 0.228392 47.7754C0.0382745 43.6605 0 42.4264 0 32C0 21.5736 0.0420392 20.3438 0.22651 16.2259C0.256893 13.7517 0.710828 11.301 1.56863 8.98008C2.19641 7.2847 3.19395 5.75045 4.48878 4.48878C5.74728 3.19098 7.28164 2.19295 8.9782 1.56863C11.2995 0.708152 13.7517 0.254135 16.2271 0.22651C20.3432 0.0382745 21.5793 0 32 0C42.4207 0 43.6562 0.0420392 47.7741 0.22651C50.2489 0.256678 52.7003 0.710617 55.0218 1.56863C56.7176 2.19378 58.2516 3.19146 59.5106 4.48816C60.8077 5.7476 61.8058 7.28194 62.4314 8.9782C63.2921 11.2994 63.7463 13.7516 63.7741 16.2271C63.9623 20.3451 64.0006 21.578 64.0006 32.0013C64.0006 42.4245 63.9623 43.6574 63.7741 47.7754C63.7442 50.2505 63.2901 52.7021 62.4314 55.0237C61.7818 56.7072 60.787 58.2361 59.5108 59.512C58.2347 60.7878 56.7055 61.7823 55.0218 62.4314C52.7006 63.292 50.2484 63.7463 47.7729 63.7741C43.6587 63.9623 42.422 64.0006 31.9987 64.0006C21.5755 64.0006 20.3426 63.9642 16.2284 63.7741" fill="url(#paint0_radial_380_2)"/>
<path d="M16.229 63.7735C13.7535 63.7459 11.3014 63.2918 8.98008 62.4314C7.28499 61.8048 5.75135 60.8073 4.49129 59.5118C3.19233 58.2543 2.19337 56.7203 1.56863 55.0237C0.708865 52.7025 0.255487 50.2505 0.228392 47.7754C0.0382745 43.6605 0 42.4264 0 32C0 21.5736 0.0420392 20.3438 0.22651 16.2259C0.256893 13.7517 0.710828 11.301 1.56863 8.98008C2.19641 7.2847 3.19395 5.75045 4.48878 4.48878C5.74728 3.19098 7.28164 2.19295 8.9782 1.56863C11.2995 0.708152 13.7517 0.254135 16.2271 0.22651C20.3432 0.0382745 21.5793 0 32 0C42.4207 0 43.6562 0.0420392 47.7741 0.22651C50.2489 0.256678 52.7003 0.710617 55.0218 1.56863C56.7176 2.19378 58.2516 3.19146 59.5106 4.48816C60.8077 5.7476 61.8058 7.28194 62.4314 8.9782C63.2921 11.2994 63.7463 13.7516 63.7741 16.2271C63.9623 20.3451 64.0006 21.578 64.0006 32.0013C64.0006 42.4245 63.9623 43.6574 63.7741 47.7754C63.7442 50.2505 63.2901 52.7021 62.4314 55.0237C61.7818 56.7072 60.787 58.2361 59.5108 59.512C58.2347 60.7878 56.7055 61.7823 55.0218 62.4314C52.7006 63.292 50.2484 63.7463 47.7729 63.7741C43.6587 63.9623 42.422 64.0006 31.9987 64.0006C21.5755 64.0006 20.3426 63.9642 16.2284 63.7741" fill="url(#paint1_radial_380_2)"/>
<path d="M26.0008 31.9981C26.0009 30.8114 26.3529 29.6515 27.0123 28.6649C27.6716 27.6783 28.6088 26.9094 29.7052 26.4554C30.8016 26.0014 32.008 25.8827 33.1719 26.1143C34.3357 26.3459 35.4048 26.9175 36.2438 27.7567C37.0828 28.5958 37.6541 29.665 37.8855 30.8289C38.1169 31.9927 37.9979 33.1991 37.5436 34.2953C37.0893 35.3916 36.3201 36.3285 35.3333 36.9876C34.3465 37.6467 33.1865 37.9984 31.9998 37.9983C30.4086 37.998 28.8826 37.3657 27.7576 36.2405C26.6326 35.1152 26.0007 33.5892 26.0008 31.9981ZM22.7569 31.9981C22.7569 33.8261 23.299 35.613 24.3146 37.133C25.3302 38.6529 26.7738 39.8375 28.4627 40.537C30.1516 41.2366 32.01 41.4196 33.803 41.063C35.5959 40.7064 37.2428 39.8261 38.5354 38.5335C39.8281 37.2409 40.7084 35.5941 41.065 33.8012C41.4217 32.0084 41.2386 30.15 40.539 28.4611C39.8395 26.7723 38.6548 25.3288 37.1348 24.3132C35.6148 23.2977 33.8278 22.7556 31.9998 22.7556C30.786 22.7555 29.584 22.9946 28.4626 23.459C27.3412 23.9235 26.3222 24.6043 25.4639 25.4625C24.6056 26.3208 23.9248 27.3397 23.4604 28.4611C22.9959 29.5825 22.7568 30.7843 22.7569 31.9981ZM39.4485 22.3894C39.4483 22.8166 39.5748 23.2342 39.812 23.5895C40.0491 23.9448 40.3863 24.2217 40.7809 24.3854C41.1755 24.549 41.6098 24.592 42.0288 24.5088C42.4478 24.4257 42.8328 24.2201 43.135 23.9182C43.4372 23.6163 43.6431 23.2316 43.7266 22.8126C43.8101 22.3937 43.7675 21.9594 43.6042 21.5647C43.4409 21.17 43.1642 20.8325 42.8091 20.5951C42.4541 20.3576 42.0365 20.2307 41.6093 20.2305C41.0367 20.2308 40.4876 20.4583 40.0827 20.8631C39.6777 21.2679 39.4499 21.8168 39.4494 22.3894M24.7287 46.6494C23.5873 46.6368 22.4566 46.4279 21.386 46.0319C20.6096 45.7326 19.9045 45.2742 19.316 44.686C18.7276 44.0978 18.2688 43.3929 17.9692 42.6166C17.573 41.5462 17.3641 40.4155 17.3517 39.2741C17.2643 37.377 17.2472 36.807 17.2472 32.0005C17.2472 27.194 17.2662 26.6254 17.3517 24.7264C17.3656 23.5851 17.5744 22.4547 17.9692 21.3838C18.2684 20.6072 18.7271 19.902 19.3156 19.3135C19.9041 18.725 20.6094 18.2664 21.386 17.9672C22.4565 17.5709 23.5873 17.362 24.7287 17.3497C26.6259 17.2623 27.1959 17.2452 32.0007 17.2452C36.8055 17.2452 37.376 17.2637 39.2751 17.3502C40.4164 17.364 41.5469 17.5728 42.6178 17.9676C43.3944 18.2669 44.0997 18.7255 44.6882 19.314C45.2767 19.9025 45.7353 20.6077 46.0346 21.3843C46.4308 22.4548 46.6397 23.5855 46.6521 24.7269C46.7395 26.6268 46.7566 27.194 46.7566 32.0009C46.7566 36.8079 46.739 37.376 46.6521 39.275C46.6388 40.4163 46.4299 41.5469 46.0346 42.6176C45.735 43.3938 45.2762 44.0987 44.6877 44.6869C44.0993 45.2751 43.3942 45.7336 42.6178 46.0328C41.5473 46.4291 40.4165 46.638 39.2751 46.6503C37.3779 46.7377 36.8079 46.7548 32.0007 46.7548C27.1936 46.7548 26.6254 46.7372 24.7287 46.6503M24.5795 14.1088C23.086 14.1381 21.6083 14.4208 20.2094 14.9448C19.0136 15.4071 17.9275 16.1142 17.0209 17.0208C16.1143 17.9274 15.4072 19.0134 14.9448 20.2092C14.4209 21.608 14.1382 23.0857 14.1088 24.5791C14.02 26.4981 14 27.1118 14 32C14 36.8882 14.0204 37.5014 14.1088 39.4209C14.1382 40.9143 14.4209 42.392 14.9448 43.7908C15.4072 44.9866 16.1144 46.0726 17.0209 46.9792C17.9275 47.8857 19.0136 48.5929 20.2094 49.0552C21.6084 49.5789 23.086 49.8616 24.5795 49.8912C26.4996 49.9786 27.1123 50 32.0007 50C36.8891 50 37.5023 49.9796 39.4219 49.8912C40.9154 49.8617 42.3931 49.5791 43.792 49.0552C44.9879 48.5929 46.0739 47.8857 46.9805 46.9792C47.8871 46.0726 48.5942 44.9866 49.0566 43.7908C49.5812 42.3922 49.8639 40.9144 49.8927 39.4209C49.9801 37.5005 50 36.8882 50 32C50 27.1118 49.9796 26.4986 49.8927 24.5791C49.8633 23.0857 49.5806 21.608 49.0566 20.2092C48.5943 19.0136 47.8873 17.9278 46.981 17.0212C46.0746 16.1147 44.989 15.4074 43.7935 14.9448C42.3946 14.4205 40.9169 14.1378 39.4233 14.1088C37.5038 14.0209 36.8905 14 32.0031 14C27.1157 14 26.501 14.0204 24.5805 14.1088" fill="white"/>
</g>
<defs>
<radialGradient id="paint0_radial_380_2" cx="0" cy="0" r="1" gradientUnits="userSpaceOnUse" gradientTransform="translate(4.1418 62.5983) scale(81.2562)">
<stop offset="0.09" stop-color="#FA8F21"/>
<stop offset="0.78" stop-color="#D82D7E"/>
</radialGradient>
<radialGradient id="paint1_radial_380_2" cx="0" cy="0" r="1" gradientUnits="userSpaceOnUse" gradientTransform="translate(44.3307 60.5427) scale(71.5062)">
<stop offset="0.64" stop-color="#8C3AAA" stop-opacity="0"/>
<stop offset="1" stop-color="#8C3AAA"/>
</radialGradient>
<clipPath id="clip0_380_2">
<rect width="64" height="64" rx="15" fill="white"/>
</clipPath>
</defs>
</svg>
