<svg width="64" height="64" viewBox="0 0 64 64" fill="none" xmlns="http://www.w3.org/2000/svg">
<g clip-path="url(#clip0_380_6)">
<path d="M60.4444 0H3.55556C1.59188 0 0 1.59188 0 3.55556V60.4444C0 62.4081 1.59188 64 3.55556 64H60.4444C62.4081 64 64 62.4081 64 60.4444V3.55556C64 1.59188 62.4081 0 60.4444 0Z" fill="#117EB8"/>
<path fill-rule="evenodd" clip-rule="evenodd" d="M14.675 25.9539H22.1189V50H14.675V25.9539ZM18.3981 14.0008C20.7783 14.0008 22.7122 15.9424 22.7122 18.3321C22.7122 20.7241 20.7783 22.6664 18.3981 22.6664C17.8245 22.6773 17.2545 22.5733 16.7214 22.3605C16.1883 22.1476 15.7028 21.8302 15.2933 21.4268C14.8838 21.0234 14.5585 20.542 14.3364 20.0109C14.1144 19.4798 14 18.9096 14 18.3336C14 17.7576 14.1144 17.1874 14.3364 16.6563C14.5585 16.1252 14.8838 15.6438 15.2933 15.2404C15.7028 14.837 16.1883 14.5196 16.7214 14.3067C17.2545 14.0939 17.8245 13.9899 18.3981 14.0008ZM26.7881 25.9531H33.9279V29.2391H34.0269C35.021 27.3488 37.4491 25.3559 41.0701 25.3559C48.6076 25.3559 50 30.3365 50 36.8112V50H42.5608V38.3063C42.5608 35.5181 42.5097 31.9309 38.693 31.9309C34.8198 31.9309 34.225 34.9683 34.225 38.1051V50H26.7873V25.9539L26.7881 25.9531Z" fill="white"/>
</g>
<defs>
<clipPath id="clip0_380_6">
<rect width="64" height="64" rx="15" fill="white"/>
</clipPath>
</defs>
</svg>
