<svg width="36" height="36" viewBox="0 0 36 36" fill="none" xmlns="http://www.w3.org/2000/svg">
<path d="M12.0008 17.9981C12.0009 16.8114 12.3529 15.6515 13.0123 14.6649C13.6716 13.6783 14.6088 12.9094 15.7052 12.4554C16.8016 12.0014 18.008 11.8827 19.1719 12.1143C20.3357 12.3459 21.4048 12.9175 22.2438 13.7567C23.0828 14.5958 23.6541 15.665 23.8855 16.8289C24.1169 17.9927 23.9979 19.1991 23.5436 20.2953C23.0893 21.3916 22.3201 22.3285 21.3333 22.9876C20.3465 23.6467 19.1865 23.9984 17.9998 23.9983C16.4086 23.998 14.8826 23.3657 13.7576 22.2405C12.6326 21.1152 12.0007 19.5892 12.0008 17.9981ZM8.75691 17.9981C8.75691 19.8261 9.299 21.613 10.3146 23.133C11.3302 24.6529 12.7738 25.8375 14.4627 26.537C16.1516 27.2366 18.01 27.4196 19.803 27.063C21.5959 26.7064 23.2428 25.8261 24.5354 24.5335C25.8281 23.2409 26.7084 21.5941 27.065 19.8012C27.4217 18.0084 27.2386 16.15 26.539 14.4611C25.8395 12.7723 24.6548 11.3288 23.1348 10.3132C21.6148 9.29767 19.8278 8.75561 17.9998 8.75561C16.786 8.75554 15.584 8.99457 14.4626 9.45903C13.3412 9.92348 12.3222 10.6043 11.4639 11.4625C10.6056 12.3208 9.92483 13.3397 9.46036 14.4611C8.99588 15.5825 8.75685 16.7843 8.75691 17.9981ZM25.4485 8.38939C25.4483 8.81656 25.5748 9.23419 25.812 9.58947C26.0491 9.94476 26.3863 10.2217 26.7809 10.3854C27.1755 10.549 27.6098 10.592 28.0288 10.5088C28.4478 10.4257 28.8328 10.2201 29.135 9.91822C29.4372 9.6163 29.6431 9.23156 29.7266 8.81263C29.8101 8.39371 29.7675 7.95942 29.6042 7.56469C29.4409 7.16997 29.1642 6.83254 28.8091 6.59506C28.4541 6.35758 28.0365 6.23072 27.6093 6.23053C27.0367 6.23078 26.4876 6.45829 26.0827 6.86307C25.6777 7.26785 25.4499 7.81681 25.4494 8.38939M10.7287 32.6494C9.5873 32.6368 8.45656 32.4279 7.38601 32.0319C6.60963 31.7326 5.90452 31.2742 5.31605 30.686C4.72758 30.0978 4.2688 29.3929 3.96922 28.6166C3.57295 27.5462 3.36406 26.4155 3.35171 25.2741C3.26431 23.377 3.24721 22.807 3.24721 18.0005C3.24721 13.194 3.26621 12.6254 3.35171 10.7264C3.36556 9.58514 3.5744 8.45467 3.96922 7.38381C4.26845 6.60723 4.7271 5.90197 5.3156 5.31349C5.9041 4.72501 6.60939 4.26638 7.38601 3.96717C8.45651 3.57092 9.58728 3.36204 10.7287 3.34968C12.6259 3.26228 13.1959 3.24518 18.0007 3.24518C22.8055 3.24518 23.376 3.26371 25.2751 3.35016C26.4164 3.364 27.5469 3.57284 28.6178 3.96765C29.3944 4.26688 30.0997 4.72552 30.6882 5.314C31.2767 5.90247 31.7353 6.60772 32.0346 7.38429C32.4308 8.45476 32.6397 9.58548 32.6521 10.7269C32.7395 12.6268 32.7566 13.194 32.7566 18.0009C32.7566 22.8079 32.739 23.376 32.6521 25.275C32.6388 26.4163 32.4299 27.5469 32.0346 28.6176C31.735 29.3938 31.2762 30.0987 30.6877 30.6869C30.0993 31.2751 29.3942 31.7336 28.6178 32.0328C27.5473 32.4291 26.4165 32.638 25.2751 32.6503C23.3779 32.7377 22.8079 32.7548 18.0007 32.7548C13.1936 32.7548 12.6254 32.7372 10.7287 32.6503M10.5795 0.108776C9.08602 0.13814 7.60831 0.42081 6.2094 0.94476C5.01355 1.40711 3.92752 2.11424 3.02092 3.0208C2.11432 3.92736 1.40716 5.01335 0.944798 6.20915C0.420898 7.60802 0.138219 9.08567 0.10878 10.5791C0.0199525 12.4981 0 13.1118 0 18C0 22.8882 0.0204275 23.5014 0.10878 25.4209C0.13821 26.9143 0.420889 28.392 0.944798 29.7908C1.40719 30.9866 2.11435 32.0726 3.02095 32.9792C3.92754 33.8857 5.01357 34.5929 6.2094 35.0552C7.60838 35.5789 9.08605 35.8616 10.5795 35.8912C12.4996 35.9786 13.1123 36 18.0007 36C22.8891 36 23.5023 35.9796 25.4219 35.8912C26.9154 35.8617 28.3931 35.5791 29.792 35.0552C30.9879 34.5929 32.0739 33.8857 32.9805 32.9792C33.8871 32.0726 34.5942 30.9866 35.0566 29.7908C35.5812 28.3922 35.8639 26.9144 35.8927 25.4209C35.9801 23.5005 36 22.8882 36 18C36 13.1118 35.9796 12.4986 35.8927 10.5791C35.8633 9.08566 35.5806 7.608 35.0566 6.20915C34.5943 5.01358 33.8873 3.92775 32.981 3.02122C32.0746 2.11469 30.989 1.40743 29.7935 0.94476C28.3946 0.420472 26.9169 0.137791 25.4233 0.108776C23.5038 0.0209017 22.8905 0 18.0031 0C13.1157 0 12.501 0.0204267 10.5805 0.108776" fill="black"/>
</svg>
