<svg width="36" height="36" viewBox="0 0 36 36" fill="none" xmlns="http://www.w3.org/2000/svg">
<path fill-rule="evenodd" clip-rule="evenodd" d="M0.675028 11.9539H8.11891V36H0.675028V11.9539ZM4.39813 0.000776687C6.77834 0.000776687 8.71222 1.94236 8.71222 4.33205C8.71222 6.72408 6.77834 8.66644 4.39813 8.66644C3.82451 8.67734 3.25449 8.57333 2.72138 8.36048C2.18827 8.14763 1.70278 7.83022 1.29328 7.4268C0.883776 7.02338 0.558488 6.54204 0.33643 6.01094C0.114372 5.47983 0 4.90961 0 4.33361C0 3.7576 0.114372 3.18738 0.33643 2.65628C0.558488 2.12517 0.883776 1.64384 1.29328 1.24041C1.70278 0.836994 2.18827 0.519581 2.72138 0.306733C3.25449 0.0938846 3.82451 -0.0101277 4.39813 0.000776687ZM12.7881 11.9531H19.9279V15.2391H20.0269C21.021 13.3488 23.4491 11.3559 27.0701 11.3559C34.6076 11.3559 36 16.3365 36 22.8112V36H28.5608V24.3063C28.5608 21.5181 28.5097 17.9309 24.693 17.9309C20.8198 17.9309 20.225 20.9683 20.225 24.1051V36H12.7873V11.9539L12.7881 11.9531Z" fill="white"/>
</svg>
