<svg width="64" height="64" viewBox="0 0 64 64" fill="none" xmlns="http://www.w3.org/2000/svg">
<g clip-path="url(#clip0_25_2)">
<path d="M29.695 0.076006C29.453 0.101506 28.6975 0.191006 28.031 0.269506C25.344 0.576006 22.297 1.38301 19.623 2.50951C9.9455 6.55301 2.662 15.4245 0.652499 25.6C0.179499 28.02 0.0644989 29.209 0.0644989 32C0.0644989 35.5975 0.421999 38.08 1.3695 41.217C4.467 51.482 12.531 59.533 22.8225 62.6425C25.92 63.578 28.416 63.9355 32 63.9355C35.5975 63.9355 38.08 63.578 41.217 62.6305C51.482 59.533 59.533 51.469 62.6425 41.1775C63.578 38.08 63.9355 35.584 63.9355 32C63.9355 30.4765 63.8595 28.7365 63.7695 28.0955C62.7325 20.6975 59.6855 14.4765 54.6055 9.39451C49.535 4.35151 43.34 1.29301 36.095 0.256006C35.097 0.115006 30.476 -0.013994 29.695 0.076006ZM19.2635 20.236C19.9435 20.441 20.2615 20.633 20.7225 21.0935C21.619 22.0035 21.824 22.502 21.824 23.871C21.824 24.8965 21.785 25.088 21.4785 25.625C20.8885 26.623 19.5195 27.545 18.5725 27.57C17.906 27.584 17.9335 27.289 18.6625 26.5215C19.635 25.51 19.7755 25.1265 19.7755 23.615C19.7635 22.1565 19.584 21.658 18.906 21.248C18.342 20.9025 17.7285 20.928 16.832 21.3495C14.502 22.4645 11.9805 26.176 10.996 29.9785C9.6895 35.047 12.006 39.1035 15.8205 38.412C16.9335 38.207 19.033 37.133 19.9435 36.287C20.6975 35.5975 20.6975 35.584 20.7735 34.727C20.9415 32.9335 22.207 31.1425 23.8985 30.3105C24.6775 29.9255 24.871 29.8885 25.92 29.8885C26.918 29.8885 27.1485 29.9395 27.635 30.207C29.1835 31.092 28.8635 33.152 27.1875 33.152C26.215 33.152 25.715 32.652 26.42 32.385C27.1115 32.129 26.8535 31.168 26.049 30.951C25.1015 30.707 24.0255 31.3475 23.3475 32.576C22.5275 34.061 22.49 35.828 23.2695 36.633C24.0255 37.4395 24.9725 36.801 25.703 34.9685C26.086 34.035 26.6365 33.535 27.2775 33.535C27.84 33.535 27.9435 33.881 27.699 34.9315C27.34 36.5565 27.584 36.9785 28.5955 36.4805C28.9275 36.326 29.4785 35.969 29.8105 35.713L30.4375 35.213L30.8615 32.998C31.3225 30.5155 31.5 30.1815 32.4475 30.004C33.3575 29.836 33.5625 30.285 33.2285 31.705L33.0485 32.5L33.715 31.82C35.289 30.207 37.2225 29.414 37.8885 30.08C38.246 30.4375 38.207 30.8865 37.6955 32.4725C37.453 33.2285 37.119 34.42 36.967 35.0975C36.7365 36.121 36.7225 36.365 36.852 36.5315C37.262 37.0175 38.5155 36.5175 39.629 35.4295L40.2815 34.791L40.3595 33.369C40.4355 31.7305 40.588 31.1425 41.0235 30.617C41.4335 30.131 42.176 29.7735 42.5725 29.875C42.969 29.9785 42.969 30.3615 42.6115 31.4885C42.1115 33.037 42.164 36.6075 42.676 36.6075C42.881 36.6075 43.9295 35.5075 44.596 34.586L45.094 33.906L44.6975 33.498C44.006 32.768 43.84 32.295 43.84 31.1035C43.84 30.2345 43.9045 29.914 44.121 29.49C44.4805 28.826 45.043 28.34 45.709 28.1465C46.412 27.9295 47.283 28.287 47.6405 28.9275C48 29.58 47.9105 31.039 47.449 32.039L47.117 32.7675H47.5645C48.1795 32.7675 48.422 32.615 49.5235 31.578C50.0995 31.0275 50.7655 30.553 51.2635 30.3225C53.2225 29.4025 55.5275 29.875 55.91 31.283C56.23 32.41 55.5275 33.203 54.297 33.113C53.414 33.049 53.248 32.818 53.76 32.385C54.6815 31.615 53.76 30.631 52.4415 30.9885C51.7245 31.1815 50.918 31.9865 50.4965 32.922C49.6505 34.791 50.0995 36.992 51.3145 36.992C51.801 36.992 52.66 36.0315 52.992 35.0975C53.3885 34.0215 54.2205 33.344 54.8475 33.5875C55.1935 33.715 55.219 34.0605 55.002 35.1485C54.758 36.34 54.7205 37.4535 54.912 37.965C54.9885 38.156 55.219 38.5155 55.4375 38.758C55.8455 39.2185 55.8595 39.385 55.5135 39.6035C55.3475 39.7185 55.1285 39.668 54.592 39.3735C53.8495 38.9885 53.209 38.297 52.9785 37.6445L52.838 37.2615L52.326 37.6445C52.031 37.8495 51.5705 38.08 51.3025 38.156C50.24 38.4375 48.9335 37.709 48.3205 36.4805C48.076 36.0055 48 34.6115 48.1795 34.074C48.2815 33.779 48.2815 33.779 47.871 33.984C47.6545 34.0995 47.1935 34.2265 46.836 34.2655C46.246 34.3305 46.156 34.3945 45.5685 35.1365C44.7365 36.1715 43.2635 37.5685 42.662 37.8635C41.383 38.502 40.961 38.3225 40.627 37.0035L40.3965 36.121L39.8455 36.6075C39.1425 37.2225 37.7345 37.965 36.9275 38.1445C36.16 38.3105 35.34 38.0665 35.0075 37.5545C34.51 36.787 34.676 35.162 35.4685 32.9725C36.0565 31.3475 35.635 31.3225 34.1505 32.871C33.049 34.035 32.576 34.867 32.2695 36.16C31.9495 37.504 31.5645 37.99 30.6955 38.195C30.17 38.3105 29.9255 37.99 30.0295 37.287L30.1055 36.7225L29.619 37.0565C28.9275 37.5295 28.0565 37.965 27.455 38.131C26.8535 38.297 26.0605 38.119 25.869 37.785C25.5235 37.1975 25.5235 37.1975 24.9865 37.619C23.8205 38.5665 22.1565 38.297 21.3125 37.043L21.0425 36.6465L20.199 37.4275C17.7655 39.6545 14.7205 40.6525 12.467 39.961C9.5995 39.092 8.0135 36.633 8.039 33.088C8.051 29.5295 9.625 25.7795 12.2755 23.002C13.7735 21.4395 15.1815 20.5175 16.6155 20.172C17.6505 19.916 18.2795 19.929 19.2635 20.236Z" fill="#00C4CC"/>
<path d="M45.209 29.338C44.9275 29.619 45.031 30.746 45.389 31.463C45.5685 31.834 45.76 32.129 45.824 32.129C45.875 32.129 45.99 31.834 46.08 31.4745C46.4 30.1445 45.824 28.7225 45.209 29.338Z" fill="#00C4CC"/>
</g>
<defs>
<clipPath id="clip0_25_2">
<rect width="64" height="64" fill="white"/>
</clipPath>
</defs>
</svg>
