<svg width="64" height="64" viewBox="0 0 64 64" fill="none" xmlns="http://www.w3.org/2000/svg">
<path d="M9.407 57.0615L4.38 0.676025H59.62L54.588 57.053L31.9665 63.3246L9.407 57.0615Z" fill="#1572B6"/>
<path d="M32.0005 58.531L50.28 53.463L54.5805 5.28601H32.0005V58.531Z" fill="#33A9DC"/>
<path d="M32.0005 25.7144H41.1515L41.7835 18.633H32.0005V11.7175H49.3415L49.1755 13.573L47.4755 32.6299H32.0005V25.7144Z" fill="white"/>
<path d="M32.0415 43.6745L32.011 43.6835L24.3095 41.604L23.817 36.0885H16.876L17.8445 46.947L32.01 50.8785L32.0415 50.8695V43.6745Z" fill="#EBEBEB"/>
<path d="M40.5635 32.3375L39.7305 41.5985L32.0175 43.6805V50.8755L46.1945 46.9465L46.2985 45.778L47.5015 32.3375H40.5635Z" fill="white"/>
<path d="M32.024 11.7175V18.633H15.32L15.1815 17.079L14.8665 13.573L14.701 11.7175H32.024ZM32.0005 25.7155V32.6309H24.396L24.2575 31.0769L23.942 27.571L23.777 25.7155H32.0005Z" fill="#EBEBEB"/>
</svg>
