<svg width="64" height="64" viewBox="0 0 64 64" fill="none" xmlns="http://www.w3.org/2000/svg">
<path d="M9.51849 56.938L4.51599 0.830505H59.484L54.476 56.9295L31.9665 63.1695L9.51849 56.938Z" fill="#E44D26"/>
<path d="M32 58.4001L50.189 53.357L54.4685 5.41803H32V58.4001Z" fill="#F16529"/>
<path d="M32 26.2275H22.894L22.265 19.1805H32V12.2995H14.7445L14.9095 14.1455L16.6005 33.109H32V26.2275ZM32 44.099L31.9695 44.1075L24.306 42.0375L23.8165 36.55H16.908L17.872 47.3545L31.9685 51.2675L32 51.259V44.099Z" fill="#EBEBEB"/>
<path d="M31.976 26.2275V33.109H40.4495L39.651 42.0335L31.976 44.105V51.2645L46.0835 47.3545L46.187 46.192L47.804 28.0755L47.9715 26.2275H46.1175H31.976ZM31.976 12.2995V19.1805H48.598L48.736 17.6345L49.05 14.1455L49.2145 12.2995H31.976Z" fill="white"/>
</svg>
