<svg width="64" height="64" viewBox="0 0 64 64" fill="none" xmlns="http://www.w3.org/2000/svg">
<g clip-path="url(#clip0_23_14)">
<path d="M58.844 49.121C55.3575 49.0255 52.6955 49.3515 50.418 50.3105C49.7715 50.584 48.7405 50.59 48.635 51.4005C48.9905 51.7735 49.045 52.33 49.3285 52.789C49.8715 53.666 50.7895 54.8455 51.608 55.465C52.5025 56.139 53.4245 56.8615 54.3835 57.4455C56.0905 58.4865 57.995 59.0805 59.6355 60.1215C60.6045 60.7365 61.565 61.51 62.5105 62.2035C62.9775 62.5455 63.292 63.0785 63.897 63.2935V63.196C63.5785 62.79 63.4965 62.231 63.2035 61.8075L61.9145 60.5185C60.6545 58.8465 59.055 57.378 57.356 56.159C56.0005 55.1845 52.9655 53.87 52.401 52.294L52.3015 52.1945C53.2625 52.085 54.3875 51.7375 55.276 51.499C56.766 51.1005 58.0985 51.204 59.6355 50.8055L61.7175 50.212V49.8155C60.94 49.0185 60.3855 47.962 59.538 47.2395C57.3175 45.349 54.8955 43.462 52.4015 41.888C51.0185 41.015 49.3095 40.4465 47.843 39.7065C47.349 39.4585 46.4835 39.3275 46.1575 38.9135C45.388 37.933 44.968 36.689 44.3745 35.5445C43.1305 33.148 41.9095 30.533 40.806 28.0115C40.054 26.293 39.564 24.5975 38.6265 23.0565C34.1265 15.658 29.283 11.1915 21.779 6.80248C20.1815 5.86898 18.2595 5.49998 16.228 5.01748L12.9565 4.81998C12.2905 4.54248 11.599 3.72798 10.974 3.33148C8.4885 1.75998 2.1115 -1.65602 0.269498 2.83598C-0.892502 5.66998 2.008 8.43548 3.045 9.87298C3.7735 10.879 4.705 12.0095 5.2245 13.1425C5.5685 13.8885 5.627 14.6345 5.92 15.422C6.639 17.3635 7.2675 19.4765 8.1995 21.2695C8.67 22.1775 9.1895 23.133 9.7855 23.9455C10.149 24.4435 10.7755 24.6645 10.8755 25.432C10.262 26.2895 10.227 27.6195 9.8835 28.7035C8.3345 33.5885 8.9205 39.6585 11.1725 43.272C11.864 44.3835 13.493 46.762 15.731 45.85C17.69 45.051 17.2525 42.5805 17.813 40.399C17.94 39.905 17.862 39.5415 18.11 39.2095V39.309L19.895 42.8755C21.2155 45.0025 23.557 47.225 25.5435 48.725C26.573 49.5025 27.3835 50.846 28.7155 51.301V51.2015H28.616C28.358 50.799 27.954 50.633 27.626 50.311C26.8505 49.5495 25.9875 48.604 25.3465 47.733C23.54 45.282 21.944 42.598 20.491 39.8055C19.7955 38.4715 19.192 37.001 18.606 35.6435C18.3795 35.12 18.3835 34.327 17.9125 34.0575C17.272 35.0515 16.3265 35.8565 15.8305 37.03C15.0395 38.907 14.936 41.198 14.643 43.571C14.469 43.6335 14.5455 43.5905 14.444 43.6705C13.063 43.3365 12.579 41.9165 12.065 40.696C10.768 37.614 10.526 32.651 11.6685 29.1005C11.9635 28.1825 13.2995 25.292 12.7585 24.4425C12.5005 23.597 11.649 23.1065 11.1725 22.46C10.5825 21.661 9.995 20.6085 9.5865 19.6845C8.524 17.282 8.03 14.583 6.9105 12.1535C6.3755 10.9915 5.473 9.81548 4.731 8.78448C3.9085 7.63998 2.989 6.79598 2.352 5.41348C2.1255 4.92148 1.819 4.13398 2.153 3.63048C2.2605 3.28848 2.411 3.14598 2.7485 3.03498C3.3225 2.59148 4.9245 3.18348 5.522 3.43148C7.112 4.09148 8.438 4.72048 9.7855 5.61298C10.43 6.04048 11.0845 6.86898 11.8655 7.09948H12.758C14.1525 7.41998 15.715 7.19698 17.0195 7.59348C19.324 8.29448 21.3885 9.38448 23.2635 10.568C28.9745 14.1755 33.6465 19.308 36.8415 25.435C37.355 26.4215 37.578 27.361 38.031 28.4075C38.943 30.517 40.0935 32.687 41.0015 34.7515C41.9095 36.808 42.7925 38.8865 44.0755 40.599C44.7495 41.4995 47.351 41.982 48.5345 42.482C49.3645 42.8315 50.724 43.197 51.509 43.6715C53.009 44.576 54.462 45.654 55.8705 46.644C56.5715 47.14 58.7355 48.228 58.843 49.1225L58.844 49.121ZM14.5415 11.361C13.815 11.3475 13.3015 11.439 12.7585 11.5585V11.658H12.856C13.2035 12.369 13.815 12.828 14.2445 13.441L15.2345 15.523L15.334 15.4255C15.9475 14.992 16.2285 14.3005 16.2245 13.244C15.9785 12.984 15.9435 12.662 15.7285 12.3515C15.4475 11.9395 14.8985 11.707 14.541 11.3615L14.5415 11.361Z" fill="#00618A"/>
</g>
<defs>
<clipPath id="clip0_23_14">
<rect width="64" height="64" fill="white"/>
</clipPath>
</defs>
</svg>
