<svg width="64" height="64" viewBox="0 0 64 64" fill="none" xmlns="http://www.w3.org/2000/svg">
<g clip-path="url(#clip0_23_31)">
<path d="M57.1565 27.627C57.1306 27.627 57.1054 27.6346 57.084 27.649L55.911 28.334C55.8889 28.3477 55.8707 28.3669 55.8583 28.3896C55.8458 28.4124 55.8395 28.4381 55.84 28.464V29.834C55.84 29.892 55.8675 29.936 55.911 29.965L57.084 30.649C57.1054 30.6633 57.1307 30.6709 57.1565 30.6709C57.1823 30.6709 57.2075 30.6633 57.229 30.649L58.4 29.965C58.4223 29.9511 58.4406 29.9317 58.4533 29.9087C58.466 29.8857 58.4726 29.8598 58.4725 29.8335V28.465C58.4726 28.4389 58.466 28.4133 58.4533 28.3905C58.4406 28.3677 58.4222 28.3486 58.4 28.335L57.2285 27.6495C57.2072 27.6352 57.1821 27.6271 57.1565 27.627ZM31.61 35.819C31.3965 35.819 31.184 35.871 31.003 35.973L25.2285 39.3365C25.0434 39.4451 24.8899 39.6003 24.7834 39.7866C24.6769 39.9729 24.6211 40.1839 24.6215 40.3985V47.11C24.6215 47.547 24.8525 47.955 25.2285 48.174L26.7485 49.047C27.4865 49.411 27.747 49.41 28.0795 49.41C29.1645 49.41 29.787 48.7405 29.787 47.59V40.9675C29.7863 40.9214 29.7678 40.8774 29.7354 40.8446C29.7029 40.8119 29.6591 40.793 29.613 40.792H28.876C28.8297 40.7928 28.7856 40.8115 28.7529 40.8443C28.7202 40.8771 28.7016 40.9212 28.701 40.9675V47.5915C28.701 48.101 28.1665 48.6115 27.313 48.175L25.7355 47.2575C25.6775 47.2285 25.648 47.1545 25.648 47.0965V40.3835C25.648 40.3255 25.6775 40.2535 25.7355 40.224L31.508 36.8755C31.5515 36.8465 31.6245 36.8465 31.6825 36.8755L37.4565 40.224C37.514 40.2535 37.5425 40.311 37.5425 40.384V47.096C37.5425 47.1685 37.514 47.228 37.4565 47.257L31.6825 50.6205C31.639 50.6495 31.566 50.6495 31.508 50.6205L30.0325 49.731C29.989 49.702 29.931 49.6875 29.8875 49.7165C29.4825 49.9495 29.4115 49.98 29.0205 50.111C28.9335 50.14 28.789 50.1975 29.078 50.3575L31.003 51.5085C31.191 51.61 31.393 51.668 31.61 51.668C31.827 51.668 32.0435 51.6105 32.217 51.538L37.9915 48.1745C38.1767 48.0655 38.3302 47.91 38.4366 47.7233C38.5431 47.5367 38.5989 47.3254 38.5985 47.1105V40.3985C38.5985 39.9615 38.3675 39.555 37.9915 39.3365L32.217 35.973C32.0311 35.8708 31.8221 35.8177 31.61 35.819ZM40.625 38.884C40.3286 38.8852 40.0449 39.004 39.8361 39.2143C39.6273 39.4246 39.5105 39.7092 39.5115 40.0055C39.5107 40.3018 39.6275 40.5862 39.8363 40.7964C40.045 41.0066 40.3287 41.1253 40.625 41.1265C41.2335 41.1265 41.739 40.617 41.739 40.0055C41.7374 39.7099 41.6198 39.4267 41.4114 39.217C41.203 39.0073 40.9206 38.8874 40.625 38.884ZM40.61 39.0735C40.7332 39.072 40.8556 39.095 40.9699 39.1412C41.0842 39.1873 41.1881 39.2558 41.2757 39.3425C41.3633 39.4292 41.4328 39.5325 41.4802 39.6463C41.5275 39.7601 41.5517 39.8822 41.5515 40.0055C41.5515 40.5155 41.1315 40.9525 40.6105 40.9525C40.1045 40.9525 39.6845 40.5295 39.6845 40.0055C39.6845 39.4815 40.1185 39.0735 40.61 39.0735ZM40.2055 39.379V40.66H40.4525V40.152H40.6695C40.7565 40.152 40.785 40.181 40.7995 40.2535C40.7995 40.2685 40.8425 40.5885 40.8425 40.6465H41.1025C41.0735 40.5885 41.059 40.4135 41.0445 40.3115C41.0305 40.1515 41.0165 40.035 40.8425 40.0205C40.9295 39.991 41.074 39.9475 41.074 39.7145C41.074 39.3795 40.784 39.3795 40.64 39.3795L40.2055 39.379ZM40.423 39.583H40.625C40.698 39.583 40.813 39.583 40.813 39.7575C40.813 39.8155 40.785 39.933 40.625 39.933H40.4225L40.423 39.583ZM33.188 40.588C31.538 40.588 30.554 41.287 30.554 42.4665C30.554 43.7335 31.538 44.0815 33.1155 44.242C35.0105 44.4315 35.1555 44.7085 35.1555 45.087C35.1555 45.742 34.6335 46.019 33.418 46.019C31.884 46.019 31.5515 45.64 31.4355 44.8685C31.4355 44.781 31.3645 44.7235 31.2775 44.7235H30.525C30.479 44.724 30.4351 44.7426 30.4027 44.7753C30.3703 44.8079 30.3521 44.852 30.352 44.898C30.352 45.888 30.8725 47.053 33.4055 47.053C35.228 47.053 36.2845 46.324 36.2845 45.043C36.2845 43.7905 35.4445 43.456 33.6655 43.223C31.8705 42.99 31.683 42.859 31.683 42.437C31.683 42.0875 31.842 41.622 33.173 41.622C34.3595 41.622 34.8075 41.8845 34.9815 42.685C34.9902 42.7211 35.0105 42.7534 35.0393 42.7769C35.0681 42.8004 35.1038 42.8138 35.141 42.815H35.9075C35.9515 42.815 35.995 42.7865 36.0245 42.7575C36.0513 42.7188 36.0661 42.6731 36.067 42.626C35.9515 41.2285 35.0405 40.588 33.188 40.588Z" fill="#5FA04E"/>
<path d="M43.036 12.332C42.9745 12.3313 42.9138 12.3467 42.86 12.3765C42.804 12.4091 42.7573 12.4556 42.7245 12.5114C42.6917 12.5673 42.6738 12.6307 42.6725 12.6955V22.16C42.6725 22.247 42.6275 22.335 42.541 22.393C42.5011 22.4145 42.4564 22.4257 42.411 22.4257C42.3657 22.4257 42.321 22.4145 42.281 22.393L40.748 21.5055C40.6356 21.441 40.5082 21.4071 40.3785 21.4071C40.2489 21.4071 40.1215 21.441 40.009 21.5055L33.875 25.073C33.7615 25.137 33.6669 25.2298 33.6008 25.3421C33.5347 25.4544 33.4994 25.5822 33.4985 25.7125V32.8325C33.4985 33.0945 33.6435 33.3425 33.875 33.4735L40.01 37.041C40.1224 37.1054 40.2497 37.1392 40.3793 37.1392C40.5088 37.1392 40.6361 37.1054 40.7485 37.041L46.883 33.4735C47.1145 33.3425 47.2595 33.0945 47.2595 32.8325V15.084C47.2595 14.8075 47.1145 14.559 46.883 14.4285L43.223 12.3765C43.1651 12.3474 43.1008 12.3322 43.036 12.332ZM6.8435 21.215C6.728 21.215 6.6125 21.257 6.5115 21.315L0.376499 24.8695C0.261301 24.9352 0.165697 25.0305 0.0995241 25.1454C0.0333507 25.2604 -0.0010027 25.3909 -1.61858e-06 25.5235L0.0149984 35.0745C0.0149984 35.206 0.0864984 35.337 0.202498 35.3955C0.256181 35.431 0.319128 35.4499 0.383499 35.4499C0.447869 35.4499 0.510817 35.431 0.564499 35.3955L4.2115 33.299C4.443 33.168 4.5865 32.92 4.5865 32.658V28.188C4.5865 27.926 4.7315 27.678 4.9635 27.547L6.5115 26.6445C6.627 26.5715 6.758 26.5425 6.888 26.5425C7.018 26.5425 7.1485 26.5715 7.25 26.6445L8.798 27.547C9.0295 27.678 9.1745 27.926 9.1745 28.188V32.658C9.1745 32.92 9.3185 33.168 9.5495 33.299L13.1675 35.3955C13.2238 35.4311 13.2891 35.45 13.3558 35.45C13.4224 35.45 13.4877 35.4311 13.544 35.3955C13.6015 35.364 13.6493 35.3175 13.6824 35.261C13.7155 35.2044 13.7326 35.14 13.732 35.0745V25.5235C13.732 25.2615 13.587 25.0135 13.355 24.882L7.235 21.315C7.13208 21.2598 7.01923 21.2257 6.903 21.2145L6.8435 21.215ZM57.177 21.32C57.0505 21.32 56.925 21.353 56.809 21.419L50.673 24.9845C50.4415 25.1155 50.298 25.3635 50.298 25.626V32.746C50.298 33.008 50.4415 33.256 50.673 33.387L56.765 36.8805C56.8747 36.9448 56.9996 36.9787 57.1268 36.9787C57.254 36.9787 57.3788 36.9448 57.4885 36.8805L61.1785 34.814C61.2359 34.7824 61.2836 34.7359 61.3166 34.6794C61.3497 34.6229 61.3667 34.5584 61.366 34.493C61.3665 34.4277 61.3494 34.3635 61.3164 34.3071C61.2834 34.2508 61.2357 34.2044 61.1785 34.173L55.015 30.605C54.959 30.5721 54.9123 30.5253 54.8795 30.4692C54.8466 30.4131 54.8288 30.3495 54.8275 30.2845V28.0565C54.8268 27.9911 54.8439 27.9268 54.8769 27.8705C54.9099 27.8141 54.9577 27.7678 55.015 27.7365L56.94 26.6295C56.9964 26.5939 57.0616 26.575 57.1283 26.575C57.1949 26.575 57.2602 26.5939 57.3165 26.6295L59.2395 27.736C59.2958 27.7688 59.3427 27.8155 59.3758 27.8716C59.4089 27.9277 59.4271 27.9914 59.4285 28.0565V29.804C59.4285 29.9355 59.5005 30.0665 59.616 30.1245C59.6724 30.1602 59.7378 30.1792 59.8045 30.1792C59.8713 30.1792 59.9367 30.1602 59.993 30.1245L63.6385 27.9845C63.7503 27.9192 63.8428 27.8255 63.9064 27.7127C63.97 27.6 64.0025 27.4724 64.0005 27.343V25.6105C64.0005 25.3485 63.8555 25.102 63.6385 24.9705L57.5465 21.4185C57.4342 21.3542 57.307 21.3201 57.1775 21.3195L57.177 21.32ZM40.3785 26.637C40.411 26.637 40.444 26.6445 40.4735 26.6595L42.5705 27.8825C42.6285 27.9115 42.658 27.9835 42.658 28.042V30.488C42.658 30.561 42.6285 30.62 42.5705 30.649L40.473 31.872C40.4436 31.8863 40.4113 31.8938 40.3785 31.8938C40.3458 31.8938 40.3135 31.8863 40.284 31.872L38.1865 30.649C38.1285 30.62 38.099 30.5465 38.099 30.488V28.042C38.099 27.969 38.129 27.9115 38.1865 27.882L40.284 26.6595C40.3135 26.6447 40.3455 26.637 40.3785 26.637Z" fill="#333333"/>
<path d="M23.991 21.4465C23.8787 21.3821 23.7515 21.3483 23.622 21.3483C23.4925 21.3483 23.3653 21.3821 23.253 21.4465L17.161 24.985C17.0492 25.05 16.9568 25.1436 16.8931 25.2562C16.8295 25.3687 16.797 25.4962 16.799 25.6255V32.716C16.799 32.9785 16.944 33.226 17.161 33.357L23.253 36.895C23.3653 36.9594 23.4925 36.9933 23.622 36.9933C23.7515 36.9933 23.8787 36.9594 23.991 36.895L30.0825 33.357C30.314 33.226 30.4445 32.9785 30.4445 32.716V25.6255C30.4445 25.3635 30.2995 25.1155 30.0825 24.985L23.991 21.4465Z" fill="url(#paint0_linear_23_31)"/>
<path d="M30.097 24.985L23.9765 21.4465C23.9164 21.4161 23.8535 21.3918 23.7885 21.374L16.9295 33.182C16.9875 33.255 17.0595 33.313 17.132 33.357L23.253 36.895C23.4265 36.997 23.629 37.026 23.817 36.9675L30.2565 25.116C30.2141 25.0606 30.1595 25.0158 30.097 24.985Z" fill="url(#paint1_linear_23_31)"/>
<path d="M30.097 33.3565C30.271 33.2545 30.401 33.08 30.459 32.8905L23.759 21.359C23.586 21.33 23.3975 21.3445 23.2385 21.4465L17.161 24.97L23.716 36.9965C23.8025 36.982 23.904 36.953 23.991 36.909L30.097 33.3565Z" fill="url(#paint2_linear_23_31)"/>
</g>
<defs>
<linearGradient id="paint0_linear_23_31" x1="26.1027" y1="24.0814" x2="20.5392" y2="35.3603" gradientUnits="userSpaceOnUse">
<stop stop-color="#3F873F"/>
<stop offset="0.33" stop-color="#3F8B3D"/>
<stop offset="0.637" stop-color="#3E9638"/>
<stop offset="0.934" stop-color="#3DA92E"/>
<stop offset="1" stop-color="#3DAE2B"/>
</linearGradient>
<linearGradient id="paint1_linear_23_31" x1="22.6963" y1="29.9988" x2="38.2189" y2="18.6004" gradientUnits="userSpaceOnUse">
<stop offset="0.138" stop-color="#3F873F"/>
<stop offset="0.402" stop-color="#52A044"/>
<stop offset="0.713" stop-color="#64B749"/>
<stop offset="0.908" stop-color="#6ABF4B"/>
</linearGradient>
<linearGradient id="paint2_linear_23_31" x1="16.5762" y1="29.1683" x2="30.6724" y2="29.1683" gradientUnits="userSpaceOnUse">
<stop offset="0.092" stop-color="#6ABF4B"/>
<stop offset="0.287" stop-color="#64B749"/>
<stop offset="0.598" stop-color="#52A044"/>
<stop offset="0.862" stop-color="#3F873F"/>
</linearGradient>
<clipPath id="clip0_23_31">
<rect width="64" height="64" fill="white"/>
</clipPath>
</defs>
</svg>
