<svg width="64" height="64" viewBox="0 0 64 64" fill="none" xmlns="http://www.w3.org/2000/svg">
<g clip-path="url(#clip0_25_14)">
<path d="M11.3335 0.799988H52.6665C58.9335 0.799988 64 5.86649 64 12.1335V51.8665C64 58.1335 58.9335 63.2 52.6665 63.2H11.3335C5.0665 63.2 0 58.1335 0 51.8665V12.1335C0 5.86649 5.0665 0.799988 11.3335 0.799988Z" fill="#001E36"/>
<path d="M22.9335 16.6665C22.1335 16.6665 21.3335 16.6665 20.507 16.6935C19.68 16.72 18.9065 16.72 18.1865 16.747C17.4665 16.7735 16.8 16.7735 16.16 16.8C15.5465 16.8265 15.12 16.8265 14.6665 16.8265C14.48 16.8265 14.4 16.933 14.4 17.12V44.56C14.4 44.8 14.5065 44.907 14.72 44.907H19.8935C20.08 44.88 20.2135 44.72 20.1865 44.5335V35.9735C20.693 35.9735 21.0665 35.9735 21.3335 36C21.6 36.0265 22.0265 36.0265 22.6665 36.0265C24.8535 36.0265 26.8535 35.7865 28.6665 35.12C30.4 34.48 31.8935 33.36 32.96 31.8665C34.0265 30.3735 34.56 28.48 34.56 26.1865C34.56 24.9865 34.347 23.84 33.947 22.72C33.5234 21.5788 32.8594 20.542 32 19.68C30.9859 18.6948 29.7652 17.9477 28.4265 17.493C26.933 16.933 25.12 16.6665 22.9335 16.6665ZM23.5285 21.919C24.4785 21.937 25.4035 22.103 26.2665 22.453C27.04 22.7465 27.68 23.28 28.1335 23.973C28.5593 24.69 28.7722 25.5135 28.747 26.347C28.747 27.52 28.48 28.427 27.92 29.0935C27.333 29.76 26.5865 30.267 25.7335 30.507C24.7465 30.827 23.7065 30.9865 22.6665 30.9865H21.253C20.933 30.9865 20.587 30.96 20.2135 30.9335V21.9735C20.4 21.9465 20.7735 21.92 21.307 21.947C21.8135 21.92 22.4265 21.92 23.12 21.92C23.2565 21.9165 23.393 21.916 23.5285 21.919ZM45.8935 23.2805C44 23.2805 42.4265 23.5735 41.1735 24.2135C40.027 24.747 39.04 25.6 38.3735 26.6665C37.787 27.6535 37.4665 28.7465 37.4665 29.8935C37.4436 30.8369 37.6544 31.7713 38.08 32.6135C38.5788 33.5102 39.2713 34.2845 40.107 34.88C41.2801 35.6822 42.5531 36.3277 43.8935 36.8C45.2 37.3065 46.08 37.7065 46.507 38.053C46.9335 38.4 47.147 38.7465 47.147 39.12C47.147 39.6 46.8535 40.0535 46.427 40.24C45.947 40.48 45.227 40.6135 44.2135 40.6135C43.147 40.6135 42.08 40.48 41.0665 40.2135C39.9029 39.9533 38.7872 39.5125 37.76 38.907C37.68 38.8535 37.6 38.827 37.52 38.8805C37.44 38.9335 37.4135 39.04 37.4135 39.12V43.76C37.387 43.9735 37.52 44.16 37.707 44.2665C38.5717 44.6705 39.4864 44.9576 40.427 45.12C41.627 45.36 42.8265 45.4665 44.053 45.4665C45.973 45.4665 47.5735 45.1735 48.88 44.6135C50.08 44.1335 51.12 43.307 51.8665 42.24C52.5653 41.1909 52.9281 39.9539 52.9065 38.6935C52.9325 37.7414 52.7219 36.7977 52.2935 35.947C51.7865 35.04 51.0665 34.2935 50.1865 33.7335C48.8991 32.9251 47.5207 32.2716 46.08 31.7865C45.4366 31.5203 44.8048 31.2267 44.1865 30.9065C43.84 30.72 43.52 30.48 43.28 30.1865C43.12 29.973 43.0135 29.7335 43.0135 29.4935C43.0135 29.2535 43.0935 28.987 43.2265 28.7735C43.4135 28.507 43.7065 28.32 44.053 28.24C44.56 28.107 45.12 28.0265 45.653 28.053C46.6665 28.053 47.653 28.1865 48.64 28.4C49.547 28.5865 50.4 28.88 51.2 29.307C51.3065 29.36 51.44 29.36 51.68 29.307C51.7218 29.2762 51.7557 29.236 51.7789 29.1896C51.8021 29.1432 51.8139 29.0919 51.8135 29.04V24.6935C51.8135 24.5865 51.7865 24.48 51.76 24.3735C51.7065 24.267 51.6 24.16 51.4935 24.1335C50.7581 23.8327 49.9874 23.6265 49.2 23.52C48.105 23.3605 47 23.2808 45.8935 23.2805Z" fill="#31A8FF"/>
</g>
<defs>
<clipPath id="clip0_25_14">
<rect width="64" height="64" fill="white"/>
</clipPath>
</defs>
</svg>
