<svg width="64" height="64" viewBox="0 0 64 64" fill="none" xmlns="http://www.w3.org/2000/svg">
<path d="M31.6955 6.12399C29.5845 6.13399 27.5695 6.31349 25.7955 6.62749C20.5705 7.55049 19.6225 9.48249 19.6225 13.046V17.7515H31.969V19.32H14.9885C11.4005 19.32 8.25851 21.4765 7.27551 25.5805C6.14151 30.283 6.09151 33.218 7.27551 38.1285C8.15301 41.784 10.249 44.388 13.8375 44.388H18.083V38.747C18.083 34.6715 21.6085 31.077 25.796 31.077H38.1285C41.5615 31.077 44.3015 28.25 44.3015 24.803V13.0465C44.3015 9.69999 41.4785 7.18649 38.1285 6.62799C36.0065 6.27499 33.806 6.11449 31.6955 6.12399ZM25.0185 9.90849C26.2935 9.90849 27.3355 10.967 27.3355 12.269C27.3355 13.5655 26.294 14.614 25.0185 14.614C23.7385 14.614 22.702 13.5655 22.702 12.269C22.7015 10.967 23.7385 9.90849 25.0185 9.90849Z" fill="url(#paint0_linear_25_17)"/>
<path d="M45.841 19.32V24.803C45.841 29.053 42.237 32.6305 38.128 32.6305H25.7955C22.4175 32.6305 19.6225 35.522 19.6225 38.905V50.6625C19.6225 54.008 22.5315 55.9765 25.7955 56.936C29.7035 58.0845 33.4515 58.2925 38.128 56.936C41.236 56.0355 44.301 54.2245 44.301 50.6625V45.9565H31.969V44.3875H50.475C54.063 44.3875 55.401 41.885 56.649 38.128C57.938 34.2605 57.8825 30.541 56.649 25.58C55.762 22.0075 54.0685 19.3195 50.475 19.3195L45.841 19.32ZM38.9045 49.0935C40.185 49.0935 41.2215 50.142 41.2215 51.4395C41.2215 52.7405 40.1845 53.799 38.9045 53.799C37.6295 53.799 36.588 52.7405 36.588 51.4395C36.588 50.142 37.6295 49.0935 38.9045 49.0935Z" fill="url(#paint1_linear_25_17)"/>
<path opacity="0.444" d="M48.6545 59.7985C48.6545 61.57 41.2465 63.0065 32.109 63.0065C22.971 63.0065 15.563 61.57 15.563 59.7985C15.563 58.0265 22.9705 56.59 32.109 56.59C41.2465 56.59 48.6545 58.026 48.6545 59.7985Z" fill="url(#paint2_radial_25_17)"/>
<defs>
<linearGradient id="paint0_linear_25_17" x1="5.16845" y1="7.59531" x2="33.6453" y2="31.8802" gradientUnits="userSpaceOnUse">
<stop stop-color="#5A9FD4"/>
<stop offset="1" stop-color="#306998"/>
</linearGradient>
<linearGradient id="paint1_linear_25_17" x1="44.3594" y1="46.9762" x2="34.1472" y2="32.6551" gradientUnits="userSpaceOnUse">
<stop stop-color="#FFD43B"/>
<stop offset="1" stop-color="#FFE873"/>
</linearGradient>
<radialGradient id="paint2_radial_25_17" cx="0" cy="0" r="1" gradientUnits="userSpaceOnUse" gradientTransform="translate(32.0421 59.7067) rotate(-90) scale(3.20916 14.1069)">
<stop stop-color="#B8B8B8" stop-opacity="0.498"/>
<stop offset="1" stop-color="#7F7F7F" stop-opacity="0"/>
</radialGradient>
</defs>
</svg>
