<svg width="27" height="20" viewBox="0 0 27 20" fill="none" xmlns="http://www.w3.org/2000/svg">
<path d="M0.0833333 2.59167C0.251364 1.8554 0.664425 1.19802 1.25487 0.727181C1.84531 0.256339 2.57814 -5.0824e-05 3.33333 7.5569e-09H23.3333C24.0885 -5.0824e-05 24.8214 0.256339 25.4118 0.727181C26.0022 1.19802 26.4153 1.8554 26.5833 2.59167L13.3333 10.69L0.0833333 2.59167ZM0 4.495V16.335L9.67167 10.405L0 4.495ZM11.2683 11.3833L0.318333 18.095C0.588878 18.6655 1.01588 19.1474 1.54964 19.4846C2.08339 19.8219 2.70196 20.0006 3.33333 20H23.3333C23.9646 20.0001 24.5829 19.821 25.1164 19.4835C25.6498 19.1459 26.0765 18.6639 26.3467 18.0933L15.3967 11.3817L13.3333 12.6433L11.2683 11.3833ZM16.995 10.4067L26.6667 16.335V4.495L16.995 10.4067Z" fill="black"/>
</svg>
