<svg width="20" height="15" viewBox="0 0 20 15" fill="none" xmlns="http://www.w3.org/2000/svg">
<path d="M0.0625 1.94375C0.188523 1.39155 0.498319 0.898516 0.941152 0.545385C1.38398 0.192255 1.93361 -3.8118e-05 2.5 5.66767e-09H17.5C18.0664 -3.8118e-05 18.616 0.192255 19.0588 0.545385C19.5017 0.898516 19.8115 1.39155 19.9375 1.94375L10 8.0175L0.0625 1.94375ZM0 3.37125V12.2512L7.25375 7.80375L0 3.37125ZM8.45125 8.5375L0.23875 13.5713C0.441658 13.9991 0.761908 14.3605 1.16223 14.6135C1.56255 14.8664 2.02647 15.0005 2.5 15H17.5C17.9735 15.0001 18.4372 14.8658 18.8373 14.6126C19.2374 14.3595 19.5574 13.9979 19.76 13.57L11.5475 8.53625L10 9.4825L8.45125 8.5375ZM12.7462 7.805L20 12.2512V3.37125L12.7462 7.805Z" fill="#0DB75F"/>
</svg>
