<svg width="20" height="20" viewBox="0 0 20 20" fill="none" xmlns="http://www.w3.org/2000/svg">
<path fill-rule="evenodd" clip-rule="evenodd" d="M2.35676 0.637693C2.57548 0.419311 2.8381 0.249903 3.12724 0.140696C3.41637 0.031489 3.72542 -0.0150233 4.03389 0.00424138C4.34236 0.023506 4.64321 0.108108 4.91651 0.25244C5.18981 0.396772 5.42932 0.597539 5.61916 0.841437L7.86284 3.72385C8.27408 4.25258 8.41907 4.94131 8.25658 5.59129L7.57285 8.3287C7.53775 8.4705 7.53978 8.61895 7.57875 8.75973C7.61772 8.90051 7.69232 9.02887 7.79534 9.13243L10.8665 12.2036C10.9702 12.3068 11.0988 12.3815 11.2398 12.4205C11.3808 12.4595 11.5295 12.4614 11.6715 12.4261L14.4076 11.7423C14.7284 11.6626 15.0631 11.6566 15.3866 11.7248C15.71 11.793 16.0138 11.9336 16.2751 12.1361L19.1575 14.3785C20.1937 15.1847 20.2887 16.7159 19.3612 17.6422L18.0688 18.9346C17.1438 19.8596 15.7613 20.2658 14.4726 19.8121C11.1736 18.6529 8.17851 16.7644 5.71041 14.2873C3.23345 11.8195 1.34499 8.8249 0.185583 5.52629C-0.266903 4.23883 0.139334 2.85512 1.06431 1.93015L2.35676 0.637693Z" fill="black"/>
</svg>
