<svg width="36" height="37" viewBox="0 0 36 37" fill="none" xmlns="http://www.w3.org/2000/svg">
<g clip-path="url(#clip0_44_6)">
<path d="M12.0008 18.4981C12.0009 17.3114 12.3529 16.1515 13.0123 15.1649C13.6716 14.1783 14.6088 13.4094 15.7052 12.9554C16.8016 12.5014 18.008 12.3827 19.1719 12.6143C20.3357 12.8459 21.4048 13.4175 22.2438 14.2567C23.0828 15.0958 23.6541 16.165 23.8855 17.3289C24.1169 18.4927 23.9979 19.6991 23.5436 20.7953C23.0893 21.8916 22.3201 22.8285 21.3333 23.4876C20.3465 24.1467 19.1865 24.4984 17.9998 24.4983C16.4086 24.498 14.8826 23.8657 13.7576 22.7405C12.6326 21.6152 12.0007 20.0892 12.0008 18.4981ZM8.75691 18.4981C8.75691 20.3261 9.299 22.113 10.3146 23.633C11.3302 25.1529 12.7738 26.3375 14.4627 27.037C16.1516 27.7366 18.01 27.9196 19.803 27.563C21.5959 27.2064 23.2428 26.3261 24.5354 25.0335C25.8281 23.7409 26.7084 22.0941 27.065 20.3012C27.4217 18.5084 27.2386 16.65 26.539 14.9611C25.8395 13.2723 24.6548 11.8288 23.1348 10.8132C21.6148 9.79767 19.8278 9.25561 17.9998 9.25561C16.786 9.25554 15.584 9.49457 14.4626 9.95903C13.3412 10.4235 12.3222 11.1043 11.4639 11.9625C10.6056 12.8208 9.92483 13.8397 9.46036 14.9611C8.99588 16.0825 8.75685 17.2843 8.75691 18.4981ZM25.4485 8.88939C25.4483 9.31656 25.5748 9.73419 25.812 10.0895C26.0491 10.4448 26.3863 10.7217 26.7809 10.8854C27.1755 11.049 27.6098 11.092 28.0288 11.0088C28.4478 10.9257 28.8328 10.7201 29.135 10.4182C29.4372 10.1163 29.6431 9.73156 29.7266 9.31263C29.8101 8.89371 29.7675 8.45942 29.6042 8.06469C29.4409 7.66997 29.1642 7.33254 28.8091 7.09506C28.4541 6.85758 28.0365 6.73072 27.6093 6.73053C27.0367 6.73078 26.4876 6.95829 26.0827 7.36307C25.6777 7.76785 25.449 8.31681 25.4485 8.88939ZM10.7287 33.1494C9.5873 33.1368 8.45656 32.9279 7.38601 32.5319C6.60963 32.2326 5.90452 31.7742 5.31605 31.186C4.72758 30.5978 4.2688 29.8929 3.96922 29.1166C3.57295 28.0462 3.36406 26.9155 3.35171 25.7741C3.26431 23.877 3.24721 23.307 3.24721 18.5005C3.24721 13.694 3.26621 13.1254 3.35171 11.2264C3.36556 10.0851 3.5744 8.95467 3.96922 7.88381C4.26845 7.10723 4.7271 6.40197 5.3156 5.81349C5.9041 5.22501 6.60939 4.76638 7.38601 4.46717C8.45651 4.07092 9.58728 3.86204 10.7287 3.84968C12.6259 3.76228 13.1959 3.74518 18.0007 3.74518C22.8055 3.74518 23.376 3.76371 25.2751 3.85016C26.4164 3.864 27.5469 4.07284 28.6178 4.46765C29.3944 4.76688 30.0997 5.22552 30.6882 5.814C31.2767 6.40247 31.7353 7.10772 32.0346 7.88429C32.4308 8.95476 32.6397 10.0855 32.6521 11.2269C32.7395 13.1268 32.7566 13.694 32.7566 18.5009C32.7566 23.3079 32.739 23.876 32.6521 25.775C32.6388 26.9163 32.4299 28.0469 32.0346 29.1176C31.735 29.8938 31.2762 30.5987 30.6877 31.1869C30.0993 31.7751 29.3942 32.2336 28.6178 32.5328C27.5473 32.9291 26.4165 33.138 25.2751 33.1503C23.3779 33.2377 22.8079 33.2548 18.0007 33.2548C13.1936 33.2548 12.6254 33.2363 10.7287 33.1494ZM10.5795 0.608776C9.08602 0.63814 7.60831 0.92081 6.2094 1.44476C5.01355 1.90711 3.92752 2.61424 3.02092 3.5208C2.11432 4.42736 1.40716 5.51335 0.944798 6.70915C0.420898 8.10802 0.138219 9.58567 0.10878 11.0791C0.0199525 12.9981 0 13.6118 0 18.5C0 23.3882 0.0204275 24.0014 0.10878 25.9209C0.13821 27.4143 0.420889 28.892 0.944798 30.2908C1.40719 31.4866 2.11435 32.5726 3.02095 33.4792C3.92754 34.3857 5.01357 35.0929 6.2094 35.5552C7.60838 36.0789 9.08605 36.3616 10.5795 36.3912C12.4996 36.4786 13.1123 36.5 18.0007 36.5C22.8891 36.5 23.5023 36.4796 25.4219 36.3912C26.9154 36.3617 28.3931 36.0791 29.792 35.5552C30.9879 35.0929 32.0739 34.3857 32.9805 33.4792C33.8871 32.5726 34.5942 31.4866 35.0566 30.2908C35.5812 28.8922 35.8639 27.4144 35.8927 25.9209C35.9801 24.0005 36 23.3882 36 18.5C36 13.6118 35.9796 12.9986 35.8927 11.0791C35.8633 9.58566 35.5806 8.108 35.0566 6.70915C34.5943 5.51358 33.8873 4.42775 32.981 3.52122C32.0746 2.61469 30.989 1.90743 29.7935 1.44476C28.3946 0.920472 26.9169 0.637791 25.4233 0.608776C23.5038 0.520902 22.8905 0.5 18.0031 0.5C13.1157 0.5 12.5 0.520427 10.5795 0.608776Z" fill="white"/>
</g>
<defs>
<clipPath id="clip0_44_6">
<rect width="36" height="36" fill="white" transform="translate(0 0.5)"/>
</clipPath>
</defs>
</svg>
