<svg width="36" height="37" viewBox="0 0 36 37" fill="none" xmlns="http://www.w3.org/2000/svg">
<g clip-path="url(#clip0_44_2)">
<path fill-rule="evenodd" clip-rule="evenodd" d="M0.675028 12.4539H8.11891V36.5H0.675028V12.4539ZM4.39813 0.500777C6.77834 0.500777 8.71222 2.44236 8.71222 4.83205C8.71222 7.22408 6.77834 9.16644 4.39813 9.16644C3.82451 9.17734 3.25449 9.07333 2.72138 8.86048C2.18827 8.64763 1.70278 8.33022 1.29328 7.9268C0.883776 7.52338 0.558488 7.04204 0.33643 6.51094C0.114372 5.97983 0 5.40961 0 4.83361C0 4.2576 0.114372 3.68738 0.33643 3.15628C0.558488 2.62517 0.883776 2.14384 1.29328 1.74041C1.70278 1.33699 2.18827 1.01958 2.72138 0.806733C3.25449 0.593885 3.82451 0.489872 4.39813 0.500777ZM12.7881 12.4531H19.9279V15.7391H20.0269C21.021 13.8488 23.4491 11.8559 27.0701 11.8559C34.6076 11.8559 36 16.8365 36 23.3112V36.5H28.5608V24.8063C28.5608 22.0181 28.5097 18.4309 24.693 18.4309C20.8198 18.4309 20.225 21.4683 20.225 24.6051V36.5H12.7873V12.4539L12.7881 12.4531Z" fill="#0DB75F"/>
</g>
<defs>
<clipPath id="clip0_44_2">
<rect width="36" height="36" fill="white" transform="translate(0 0.5)"/>
</clipPath>
</defs>
</svg>
